<!-- Generator: Adobe Illustrator 19.2.1, SVG Export Plug-In  -->
<svg version="1.1"
	 xmlns="http://www.w3.org/2000/svg" xmlns:xlink="http://www.w3.org/1999/xlink" xmlns:a="http://ns.adobe.com/AdobeSVGViewerExtensions/3.0/"
	 x="0px" y="0px" width="163.7px" height="219.1px" viewBox="0 0 163.7 219.1" enable-background="new 0 0 163.7 219.1"
	 xml:space="preserve">
<defs>
</defs>
<g>
	<g>
		<path d="M35.9,88.3c-1.1,0-2.1-0.2-3-0.5c-0.9-0.3-1.6-0.9-2.3-1.5c-0.6-0.7-1.1-1.5-1.4-2.4c-0.3-1-0.5-2.1-0.5-3.3
			c0-1.2,0.2-2.4,0.6-3.3c0.4-1,0.9-1.8,1.6-2.4c0.7-0.7,1.4-1.2,2.3-1.5c0.9-0.3,1.8-0.5,2.9-0.5c0.6,0,1.2,0,1.7,0.1
			c0.5,0.1,0.9,0.2,1.3,0.3s0.7,0.2,0.9,0.4c0.2,0.1,0.4,0.2,0.5,0.3L39.7,76c-0.3-0.2-0.8-0.4-1.5-0.6c-0.6-0.2-1.3-0.3-2.1-0.3
			c-0.6,0-1.2,0.1-1.8,0.3c-0.6,0.2-1,0.6-1.5,1c-0.4,0.4-0.7,1-1,1.7c-0.2,0.7-0.3,1.5-0.3,2.3c0,0.8,0.1,1.5,0.3,2.2
			c0.2,0.7,0.5,1.2,0.8,1.7c0.4,0.5,0.8,0.9,1.4,1.1c0.6,0.3,1.3,0.4,2.1,0.4c1,0,1.7-0.1,2.3-0.3c0.6-0.2,1.1-0.4,1.4-0.5l0.7,2.2
			c-0.2,0.1-0.4,0.2-0.7,0.3c-0.3,0.1-0.6,0.2-1,0.3c-0.4,0.1-0.9,0.2-1.4,0.3C37,88.2,36.5,88.3,35.9,88.3L35.9,88.3z M9.4,116.9
			v2.3H0v-14.9h2.7v12.6H9.4L9.4,116.9z M29.2,119.2c-0.2-0.6-0.4-1.2-0.6-1.7c-0.2-0.6-0.4-1.2-0.6-1.8h-6.3
			c-0.2,0.6-0.4,1.2-0.6,1.8c-0.2,0.6-0.4,1.2-0.6,1.7h-2.8c0.6-1.6,1.1-3.1,1.6-4.4c0.5-1.4,1-2.6,1.5-3.8s1-2.4,1.4-3.4
			c0.5-1.1,1-2.2,1.5-3.2h2.6c0.5,1.1,1,2.1,1.5,3.2c0.5,1.1,1,2.2,1.4,3.4s1,2.5,1.5,3.8c0.5,1.4,1,2.8,1.6,4.4H29.2L29.2,119.2z
			 M24.8,107.2c-0.3,0.8-0.7,1.7-1.1,2.8c-0.4,1.1-0.9,2.3-1.3,3.6h4.9c-0.5-1.3-0.9-2.5-1.3-3.6C25.5,108.8,25.1,107.9,24.8,107.2
			L24.8,107.2z M55.5,117.2c1,0,1.7-0.2,2.1-0.5c0.4-0.3,0.7-0.8,0.7-1.4c0-0.4-0.1-0.7-0.2-0.9c-0.2-0.3-0.4-0.5-0.6-0.7
			c-0.3-0.2-0.6-0.4-1-0.6c-0.4-0.2-0.9-0.4-1.4-0.5c-0.5-0.2-1-0.4-1.5-0.6c-0.5-0.2-0.9-0.5-1.3-0.8c-0.4-0.3-0.7-0.7-0.9-1.2
			c-0.2-0.5-0.3-1-0.3-1.7c0-1.4,0.5-2.4,1.4-3.2c0.9-0.8,2.2-1.2,3.8-1.2c0.9,0,1.8,0.1,2.5,0.3c0.7,0.2,1.3,0.4,1.7,0.7l-0.8,2.2
			c-0.5-0.3-1-0.5-1.6-0.6c-0.6-0.1-1.2-0.2-1.8-0.2c-0.7,0-1.3,0.2-1.7,0.5c-0.4,0.3-0.6,0.7-0.6,1.3c0,0.3,0.1,0.6,0.2,0.9
			c0.1,0.2,0.3,0.4,0.6,0.6c0.3,0.2,0.5,0.4,0.9,0.5c0.3,0.2,0.7,0.3,1.1,0.5c0.7,0.3,1.3,0.5,1.9,0.8c0.6,0.3,1,0.6,1.4,0.9
			c0.4,0.4,0.7,0.8,0.9,1.3c0.2,0.5,0.3,1.1,0.3,1.8c0,1.4-0.5,2.4-1.4,3.1c-1,0.7-2.4,1.1-4.2,1.1c-0.6,0-1.2,0-1.7-0.1
			c-0.5-0.1-1-0.2-1.4-0.3c-0.4-0.1-0.7-0.2-1-0.4c-0.3-0.1-0.5-0.2-0.7-0.3l0.8-2.2c0.4,0.2,0.9,0.4,1.6,0.6
			C53.7,117.1,54.5,117.2,55.5,117.2L55.5,117.2z M81.2,119.2c-0.2-0.6-0.4-1.2-0.6-1.7c-0.2-0.6-0.4-1.2-0.6-1.8h-6.3
			c-0.2,0.6-0.4,1.2-0.6,1.8c-0.2,0.6-0.4,1.2-0.6,1.7h-2.8c0.6-1.6,1.1-3.1,1.6-4.4c0.5-1.4,1-2.6,1.5-3.8s1-2.4,1.4-3.4
			c0.5-1.1,1-2.2,1.5-3.2h2.6c0.5,1.1,1,2.1,1.5,3.2c0.5,1.1,1,2.2,1.4,3.4s1,2.5,1.5,3.8c0.5,1.4,1,2.8,1.6,4.4H81.2L81.2,119.2z
			 M76.8,107.2c-0.3,0.8-0.7,1.7-1.1,2.8c-0.4,1.1-0.9,2.3-1.3,3.6h4.9c-0.5-1.3-0.9-2.5-1.3-3.6C77.5,108.8,77.1,107.9,76.8,107.2
			L76.8,107.2z M103.2,116.9v2.3h-9.4v-14.9h2.7v12.6H103.2L103.2,116.9z M113.1,104.3h2.7v14.9h-2.7V104.3L113.1,104.3z
			 M137.2,119.2c-0.5-0.8-1-1.7-1.6-2.6c-0.6-0.9-1.2-1.9-1.9-2.8s-1.3-1.9-2-2.8c-0.7-0.9-1.3-1.7-1.9-2.4v10.7h-2.7v-14.9h2.2
			c0.6,0.6,1.2,1.3,1.9,2.1c0.7,0.8,1.3,1.7,2,2.6c0.7,0.9,1.3,1.8,1.9,2.7c0.6,0.9,1.2,1.7,1.7,2.5v-9.9h2.7v14.9H137.2
			L137.2,119.2z M160.8,119.2c-0.2-0.6-0.4-1.2-0.6-1.7c-0.2-0.6-0.4-1.2-0.6-1.8h-6.3c-0.2,0.6-0.4,1.2-0.6,1.8
			c-0.2,0.6-0.4,1.2-0.6,1.7h-2.8c0.6-1.6,1.1-3.1,1.6-4.4c0.5-1.4,1-2.6,1.5-3.8c0.5-1.2,1-2.4,1.4-3.4c0.5-1.1,1-2.2,1.5-3.2h2.6
			c0.5,1.1,1,2.1,1.5,3.2c0.5,1.1,1,2.2,1.4,3.4c0.5,1.2,1,2.5,1.5,3.8c0.5,1.4,1,2.8,1.6,4.4H160.8L160.8,119.2z M156.4,107.2
			c-0.3,0.8-0.7,1.7-1.1,2.8c-0.4,1.1-0.9,2.3-1.3,3.6h4.9c-0.5-1.3-0.9-2.5-1.3-3.6C157.1,108.8,156.7,107.9,156.4,107.2
			L156.4,107.2z M54.9,72.9c2.2,0,3.8,0.4,4.9,1.2c1.1,0.8,1.7,2,1.7,3.6c0,2-1,3.4-3,4.1c0.3,0.3,0.6,0.7,0.9,1.2
			c0.3,0.5,0.7,1,1.1,1.5c0.4,0.6,0.7,1.1,1,1.7c0.3,0.6,0.6,1.2,0.9,1.7h-3c-0.3-0.5-0.6-1-0.9-1.6c-0.3-0.5-0.6-1-1-1.5
			c-0.3-0.5-0.6-1-1-1.4c-0.3-0.4-0.6-0.8-0.9-1.2c-0.2,0-0.4,0-0.5,0c-0.1,0-0.3,0-0.4,0h-1.3v5.6h-2.7V73.2
			c0.7-0.1,1.4-0.2,2.1-0.3C53.6,72.9,54.3,72.9,54.9,72.9L54.9,72.9z M55.1,75.2c-0.6,0-1.1,0-1.6,0.1v4.8h1.2c0.7,0,1.2,0,1.7-0.1
			c0.5-0.1,0.9-0.2,1.3-0.4c0.3-0.2,0.6-0.4,0.8-0.8c0.2-0.3,0.3-0.7,0.3-1.2c0-0.5-0.1-0.8-0.3-1.2c-0.2-0.3-0.4-0.6-0.7-0.8
			c-0.3-0.2-0.7-0.3-1.2-0.4C56.1,75.3,55.6,75.2,55.1,75.2L55.1,75.2z M82.3,87.9c-0.2-0.6-0.4-1.2-0.6-1.7
			c-0.2-0.6-0.4-1.2-0.6-1.8h-6.3c-0.2,0.6-0.4,1.2-0.6,1.8c-0.2,0.6-0.4,1.2-0.6,1.7h-2.8c0.6-1.6,1.1-3.1,1.6-4.4
			c0.5-1.4,1-2.6,1.5-3.8c0.5-1.2,1-2.4,1.4-3.4c0.5-1.1,1-2.2,1.5-3.2h2.6c0.5,1.1,1,2.1,1.5,3.2c0.5,1.1,1,2.2,1.4,3.4
			c0.5,1.2,1,2.5,1.5,3.8c0.5,1.4,1,2.8,1.6,4.4H82.3L82.3,87.9z M77.9,75.9c-0.3,0.8-0.7,1.7-1.1,2.8c-0.4,1.1-0.9,2.3-1.3,3.6h4.9
			c-0.5-1.3-0.9-2.5-1.3-3.6C78.6,77.6,78.2,76.6,77.9,75.9L77.9,75.9z M98.1,73c0.3,0.5,0.7,1.2,1.1,2c0.4,0.8,0.8,1.6,1.2,2.5
			c0.4,0.9,0.8,1.8,1.2,2.7c0.4,0.9,0.8,1.7,1.1,2.5c0.3-0.8,0.7-1.6,1.1-2.5c0.4-0.9,0.8-1.8,1.2-2.7c0.4-0.9,0.8-1.7,1.2-2.5
			c0.4-0.8,0.7-1.5,1.1-2h2.5c0.1,1.1,0.3,2.3,0.4,3.5c0.1,1.2,0.2,2.5,0.3,3.8c0.1,1.3,0.2,2.6,0.3,3.9c0.1,1.3,0.1,2.6,0.2,3.8
			h-2.7c-0.1-1.7-0.1-3.5-0.2-5.4c-0.1-1.8-0.2-3.6-0.4-5.3c-0.2,0.3-0.3,0.7-0.6,1.2c-0.2,0.5-0.4,1-0.7,1.5
			c-0.2,0.5-0.5,1.1-0.7,1.7c-0.3,0.6-0.5,1.1-0.7,1.7s-0.5,1-0.7,1.5c-0.2,0.5-0.4,0.9-0.5,1.2h-2c-0.1-0.3-0.3-0.7-0.5-1.2
			c-0.2-0.5-0.4-1-0.7-1.5c-0.2-0.5-0.5-1.1-0.7-1.7c-0.3-0.6-0.5-1.1-0.7-1.7c-0.2-0.5-0.5-1-0.7-1.5c-0.2-0.5-0.4-0.9-0.6-1.2
			c-0.2,1.7-0.3,3.5-0.4,5.3c-0.1,1.8-0.1,3.6-0.2,5.4h-2.7c0.1-1.2,0.1-2.5,0.2-3.8c0.1-1.3,0.2-2.6,0.3-3.9
			c0.1-1.3,0.2-2.6,0.3-3.8c0.1-1.2,0.2-2.3,0.4-3.4H98.1L98.1,73z M131.6,87.9c-0.2-0.6-0.4-1.2-0.6-1.7c-0.2-0.6-0.4-1.2-0.6-1.8
			h-6.3c-0.2,0.6-0.4,1.2-0.6,1.8c-0.2,0.6-0.4,1.2-0.6,1.7H120c0.6-1.6,1.1-3.1,1.6-4.4c0.5-1.4,1-2.6,1.5-3.8
			c0.5-1.2,1-2.4,1.4-3.4c0.5-1.1,1-2.2,1.5-3.2h2.6c0.5,1.1,1,2.1,1.5,3.2c0.5,1.1,1,2.2,1.4,3.4c0.5,1.2,1,2.5,1.5,3.8
			c0.5,1.4,1,2.8,1.6,4.4H131.6L131.6,87.9z M127.2,75.9c-0.3,0.8-0.7,1.7-1.1,2.8c-0.4,1.1-0.9,2.3-1.3,3.6h4.9
			c-0.5-1.3-0.9-2.5-1.3-3.6C127.9,77.6,127.5,76.6,127.2,75.9z"/>
		<g>
			<path fill-rule="evenodd" clip-rule="evenodd" fill="#CB521E" d="M67.1,15.7l0.1,0.8l0,0.6L67,19.2l-0.1,0
				c-0.1,0.8,0.8,0.8,1.5,1l0.6-0.6c-0.3-1.1,0.2-2.7,0.2-3.5C69.1,15.1,67.6,14.8,67.1,15.7z"/>
			<path fill-rule="evenodd" clip-rule="evenodd" fill="#CB521E" d="M91.2,39.3c0.2-0.4,2.5-0.3,3-0.4l0.5,0l0.6,0
				c0.2,0,0.2,0,0.3,0.1c0.1-0.1,0.2-0.2,0.4-0.2l0.4,0.1l0.9,0l1.9,0L100,39l1.1,0c0.2-0.1,0.2,0,0.3,0.1l0.3-0.2l0.3,0.2l0.7,0
				l0-0.1l1.1,0l0,0.1c0.1-0.1,0.1-0.2,0.3-0.2h0.5l2,0.1c0.2,0-0.1,0,0.4,0h0.2l1.1,0.1c-0.1,0.5-0.3,1.3-0.4,1.9
				c0,0.3-0.5,1.8-0.6,1.9c-0.4,1.1-1.3,2.5-1.6,3.6c-0.5,1.4-0.9,2.2-1.7,3.4c-0.3,0.4-2.3,2.8-2.3,2.9c-0.3,0-1.7,1.8-2.5,1.8
				c0,0.5-2.5,1.5-3,1.7c-0.5,0.1-2.8,0.7-3.5,0.7h-0.2c-0.6,0-0.5,0.1-1,0.2V57h-0.2c-0.2,0.4-3.2,0.3-3.8,0.4l-0.9,0
				c-0.2,0.1-1.7-0.4-2.4-0.4c-0.6,0-1.4-0.3-2.1-0.4c-1.7-0.2-3.1-0.9-4.6-1.4c-0.5-0.2-1.6-0.8-2-1c-0.2-0.1-0.8-0.2-1.1-0.4
				c-0.4-0.3-0.4-0.4-0.8-0.5c-1.1-0.4-2.7-1.6-3.9-2.1c-0.8-0.4-1.2-0.8-1.9-1.2c-0.7-0.4-1.3-0.7-1.9-1.2
				c-0.6-0.4-1.2-0.9-1.8-1.3c-0.6-0.4-0.4-0.3-0.9-0.7c-0.3-0.3-0.6-0.3-0.9-0.6c-1.1-1-2.3-1.7-3.3-2.8c-0.5-0.6-2.6-2.7-2.7-3.5
				l0-0.1l3.5-0.4l0.5,0l1.7,0.3l0.1,0.2l0.3-0.3l0.3,0.2l0.1,0c0.2-0.4,5-0.3,5.9-0.2l1,0c0.5-0.1,0.9,0.2,1.3,0.1
				c0.6-0.2,0.6-0.1,1.3-0.2c0.8-0.1,2.2-0.1,3.1-0.1h0.3l2.2,0.1l5.2-0.1l2.3,0l4.5-0.3L91.2,39.3L91.2,39.3z M72.2,30.3
				c1.4-0.7,3.4-0.4,5.1-0.6c1.1-0.1,1.7-0.2,2.5-0.1c1.1,0.1,1.5,0.2,2.4,0.2l0.6,0l1.1,0l0,0.5l0.1,0.2l-0.2,0.3l0.1,0.4l-0.1,0
				c0,0.4,0.1,0.2,0.2,0.5l0,1.4L84,33l0.2,0.5l-0.2,0l0.1,0.5c-0.3,0.4-0.2,3.8-0.6,3.8h-0.4l-0.6,0l-1.2,0l-0.6,0l-0.5,0L77,37.9
				c-0.3,0-0.5,0-0.6-0.2v0.1h-0.7l-1.8,0l-0.5,0c-0.3,0-0.5,0.1-0.8,0.1l-0.8,0l-0.3,0L72.2,30.3L72.2,30.3z M93.5,37.2
				c-0.5,0-0.2,0.1-0.8,0.1v-0.2c-0.5,0-0.5,0.4-0.5-0.2h0.2c-0.1-0.3-0.8-1.9-0.4-2.1l-0.1-0.5c0.1-0.1,0.1-0.1,0.1-0.3
				c0-0.3,0-2,0-2.2c-0.1-0.4-1-1-1.5-1c-0.5,0-0.2,0.5-0.6,0.6l0.1,1l0,1.6c0,0.2-0.4,2-0.5,2.3c0.2,0.1,0.3,0.2,0.2,0.5l-0.1,0.6
				l-3.1,0.2l-0.3,0c-0.6,0-0.5-0.6-0.5-1.4c0-0.2,0.1-0.4,0.2-0.8l0.2-5.1c0-0.3-0.1-0.5,0.3-0.8l-0.1-0.4l0.3-0.2l-0.2-0.7
				l1.2-1.6l3.4-4.5c0.5,0.1,2.4,2.3,2.4,2.9h0.2l-0.1,0l1,1.6l-0.1,0.1c0.3,0,0.9,1,1,1.2c0.1,0.7-0.1,1.4,0.2,1.9l-0.2,0
				c0.1,0.2,0.1,0.1,0.1,0.3l0,1.4l-0.1,0l0.2,0.6l-0.1,0l-0.1,0.8c0,0.2,0.2-0.1-0.1,0.4c0.1,0.1,0.2,0,0.2,0.2v0.1
				c0,0.2,0,0.1-0.2,0.2l0.2,1.2c0,0.1-0.1,0.4-0.1,0.5c0,0.2,0.1,0.3,0.2,0.6l-0.2,0.9l-1.1,0L93.5,37.2L93.5,37.2z M74.4,28.2H75
				H75c0.2,0,0.1,0,0.2,0.1l0.8-0.1l0.5,0l0.4,0l0.5,0l1.1-0.1l1.1,0l1.4,0.1l0.6,0l1.8-0.1l0-0.3l0.3,0.2c0.1-0.5,0.4-0.4,0.7-0.7
				c0.1-0.1,0.6-0.6,0.7-0.8c0.2-0.3,1.1-1.2,1.1-1.7c0.4,0,1.5-1.6,1.7-2c0.3-0.5,1.6-1.8,1.3-2l0.3-0.2c-0.5-0.3-1.5,0.2-2.3,0.3
				c-0.8,0.1-1.3,0.1-2.2,0.3c-1.3,0.2-3.5,0.5-4.7,0.9c-0.5,0.2-1.4,0.8-1.8,1.2c-0.5,0.7-0.9,1-1.5,1.5
				C76.7,25.5,74.4,27.6,74.4,28.2L74.4,28.2z M77.7,16.6l0,0.7l0,1.1l0,0.4l0,0.2l0,0.4l0,0.2c0,2.3-0.3,2.7-1.6,4.2
				c-0.2,0.2-0.6,0.6-0.8,0.8c-0.5,0.3-0.4,0.4-0.7,0.8c-0.2,0.2-1.3,1.4-1.6,1.4l0.1,0.1l-0.4,0.4l-0.1,0l0.1-2.1l0-0.3l0-1.1
				l0-0.2l0-0.8l0-1c0-0.5,0.2-1.8,0.2-2.4c0-0.6,0-1.8,0-2.4c0.1-2.7-0.4-3.4,1.9-3.4h0.2c1.3,0,2.3-0.4,2.5,0.7
				c0,0.2,0.3,0.7,0.3,1.1C77.7,15.9,77.7,16,77.7,16.6L77.7,16.6z M65.9,13.9l-0.2-0.2l4.5,0.1l0.8,0.1L71,17.8l-0.3,9.3l0.1,0.6
				l-0.5,4.8l-0.3,3.6c-0.1,1.3-0.1,1.9-1.2,1.9h-0.2L67,38l-2.3-0.1l-0.2,0.1L63.3,38c0-0.6,0.1-3,0.2-3.8c0.1-0.4,0.2-3.3,0.5-3.4
				c-0.1-0.3-0.2-0.2-0.2-0.4l0.4-2.3l0.1,0c-0.2-0.9,0.2-1.9,0.3-3.1c0.1-0.9,0.1-2.1,0.3-3.2c0.3-2.2,0.5-4.7,0.6-7.1l0.1-0.7
				L65.9,13.9L65.9,13.9z M66.4,12c0.2-0.7,0.9-1.6,1.1-2.3c0.3-0.9,0.8-1.5,1.1-2.2c0.4-0.9,0.7-1.4,1.2-2.2c0.3-0.5,0.8-1.9,1.3-2
				c1.2,0.9,1.7,2.3,2.4,3.6c0.4,0.7,1.7,3.5,1.7,4.2c0.1,0.1,0.4,0.3,0.4,0.5v0.3h-1.4l0,0.1l-1.9-0.2l0-0.1v0.2
				c-0.7,0-0.3-0.2-0.7-0.2c-0.6,0.1-0.1,0.3-0.7,0.3v0.3l-0.9,0l-2.3,0l-1,0C66.6,12.2,66.5,12.1,66.4,12L66.4,12z M50.8,17.6
				c-0.2,0.2-0.8,3.9-0.6,4l-0.2,0.7l0.1,1.3l0,0.4l-0.1,1c0,0.4-0.1,2.7,0.3,2.8l-0.2,0.5l0.1,0l0,0.4c0,0,0.2,0.4,0.4,0.5
				l-0.2,0.2l0.1,0l0.6,1l-0.1,0.5l0.1,0l0.2,0.4c0.4,0-0.2,0.1,0.4,0.8c0.2,0.2,0.2,0.5,0.4,0.8c0.4,0.6,0.5,1.4,0.8,1.9
				c0.1,0.3,0.4,0.4,0.6,0.8c0.2,0.4,0.3,0.4,0.5,0.9c0.2,0.4,0.8,1.7,1.3,1.7h0.5c0.4,0-0.1-0.1,0.5-0.1c0.2,0,0.3,0,0.6,0
				c0.4,0,0.8-0.1,1.3-0.1c0.5,0,2.7-0.3,2.9,0.1l0.2-0.1l0.3-0.1v-0.4h-0.2v-0.2l0.1,0l0.2-2.6l0.3-2.4c0-0.3,0-0.6,0.1-1
				c0.1-0.5,0.1-0.6,0.2-1c0.1-0.7,0.4-1.4,0.4-2.1c0-0.9,0.4-2.8,0.6-4.1c0.1-0.8,0.1-1.7,0.2-2.4c0-0.4,0.2-0.9,0.2-1.1
				c0-0.5,0-1,0-1.4c0.1-0.6,0.5-4.5,0.4-4.8l-0.1-0.8l-0.8,0c-0.4,0-0.5,0-0.6,0.3c-0.5-0.2-1.5,0.4-1.8,0.6l-0.1,0.1l-1-0.8
				c0-0.8-0.1-1.1,0.7-1.1c0.3,0,1.2-0.4,1.7-0.5c0.5-0.1,1.6-0.1,1.8-0.3c0.7-0.8,0.8-0.1,1.2-1c0.3-0.7,1.2-2.3,1.3-3
				c0.1-0.4,1.2-2.1,1.5-2.7c-0.2-0.1-0.1-0.1-0.3,0L66.2,5C65.8,5.2,64,5.9,63.5,6C63,6,62.7,6,62.2,6.1c-0.4,0.1-0.2,0.2-0.5,0.3
				c-0.2,0.1-0.2,0-0.6,0.1c-1,0.4-1.6,0.5-2.5,1.1c-0.6,0.5-1.7,0.9-2.3,1.3c-1.3,1.2-2.6,2.2-3.5,3.7C52.1,13.7,50.4,16,50.8,17.6
				L50.8,17.6z M74.7,5.5l0.6,0.9l2.5,5.5l-0.1,0.1l3.5,0.4l0-0.2l0.4,0.2l0.2-0.2c0.4,0.2,1.6,0.6,1.6,1.1c0,0.6-0.9,0.4-0.9,0.7
				l-1.7-0.1l-1.2-0.1l0.1,1.8l-0.1,4.2c0,0.2,0.1,0.1,0.1,0.3l-0.1,0.2l0,0.2l2-0.3l0-0.1c0.2,0,0.2,0.1,0.5,0.1
				c0.6,0,1.6-0.3,2.2-0.5c0.2,0,1.1-0.2,1.2-0.2c0.8-0.1,0.7,0.1,1.2,0.1c0-0.1,3.2-0.9,3.5-0.9c0.6,0,0.7,0.3,1.3,0.2l1.1,1.1
				l-0.2,0.6l0.1,0.1l-0.2,0.2c0.2,0.3,0.7,0.9,1,1.1c0.2,0.2,0.7,0.9,0.9,1.2c0.4,0.4,1.6,2.1,1.8,2.2c-0.2,0.3,0.9,1.7,1.2,2
				c0.6,0.8,0.2,1.7,0.2,2.6l0,0.2l0,2l0,0.5l0,0.6l0.1,2l0,1l0.1,0l0.1,1.2l0.3-0.2l0.1,0.2h0.5l0.1,0l0.1,0.1l0.4-0.2l0-0.1h0.2
				l0,0.1l1.6,0l0-0.1h0.2l0,0.2l0.6-0.1l0.5,0l3.2,0.1l0.7,0h0.4l0,0.1l0.5-0.1l0.5,0.1h1c0-0.4,0.4-1.3-0.2-1.5l0.1,0l-0.8-3.9
				l-0.4-1.7l-0.3,0l0.2-0.2c-0.4-0.6,0-1.6-0.8-2c0.2-0.4-1.2-3.6-1.3-4.5c-0.1-0.6-0.6-1.8-0.8-2.3c-0.2-0.3-0.9-1.8-0.9-2.1
				l-0.1,0l-0.6-1.1l-0.5-1.2l-0.2,0l-0.5-0.7l-0.1,0.1c0.2-0.3-0.3-0.9-0.7-1l0.1-0.1l-1-1.2l-0.1,0.1v-0.3c-0.5,0-0.4-0.2-0.6-0.6
				c-0.2-0.4-0.4-0.3-0.5-0.5c-0.3-0.4-0.7-1.1-1.2-1l0.1-0.1l-0.4-0.4l0.1-0.1c-0.6,0-2.3-1.7-3.2-1.7l-0.1-0.2l-2.2-1.2l-0.6-0.3
				L90.3,8h-0.2l0-0.2L87.6,7l0,0.1c-0.1-0.2-1.7-0.8-2-0.8h-0.1c-0.5,0-1.2-0.2-1.8-0.3c-0.8-0.2-1-0.2-1.6-0.3
				c-0.7-0.1-1.1-0.2-1.8-0.3c-0.4-0.1-0.7-0.1-1-0.1c-0.4,0-0.7-0.2-0.9-0.3l-4.1-0.5l0.4,0.7l0.1,0L74.7,5.5L74.7,5.5z M73.1,2.6
				c-0.6,0-1.3-1.2-1.3-1.8c0-0.2,0-0.1,0.1-0.3l-0.3-0.3c-0.3,0-0.5-0.2-1.2-0.2c-0.2,0-0.2,0-0.3-0.1c-0.6,0.4-0.6,0.9-0.9,1.6
				c-0.4,0.8-0.2,0.9-0.7,1.8L67,3.5l0,0.1c-0.1-0.1-0.1-0.2-0.3-0.2h-0.1C66,3.4,64.4,4,64,4.3c-1,0-1.2,0.1-1.9,0.2
				c-0.9,0.1-0.9,0.3-1.6,0.4C60,5,59.7,5.2,59.2,5.4c-0.5,0.2-0.8,0.7-1.3,0.6l-0.1,0.3c-0.3,0-1.3,0.7-1.7,0.8
				c-0.3,0.1-0.7,0.3-0.8,0.4C55,7.8,55.1,8,54.6,8.1l0.1,0.1l-1.1,1.1l-1.4,1.3l0.1,0.1h-0.4v0.3c-0.5,0.1-0.8,1.8-1.4,1.8
				c0,0.5-0.2,0.6-0.5,0.5c0,0.2,0.1,0.1,0.1,0.3c0,0.4,0,0.5-0.3,0.7l-0.1,0.9L49.3,15l0.2,0.3l-0.1,0l-0.2,1.1l0.1,0.1l-0.2,0
				l0.1,0.5l-0.4,1.9l-0.2,1.1l-0.2,1.5l0,1.8l0,0.8l0,0.1l-0.1,1.9c0,0.3,0,0.2,0,0.5l0.1,0l0.3,2.4c0.1,0.6-0.1,0.3,0.3,1.1
				c0.2,0.4,0.4,0.7,0.6,1.1c0.2,0.4,0.9,2.2,0.9,2.6l0.2,0l0.4,1.2l-0.1,0c0.2,0,0.9,1.4,1.1,1.7c0.3,0.5,0.8,1.2,0.8,1.8
				c0.5-0.2,0.6,0.2-0.2,0.2c-0.5,0-0.5,0.1-1,0.1c-0.8,0.1-1.2-0.4-1.2,0.9h0.2V40l0.1-0.1l0.5,0.6l0,0.1l3.2-0.4l0.2,0.1l-0.1,0
				l0.9,1.4l0.3,0.3l0.1-0.1v0.3c0.2,0,0.8,0.9,1.1,1.2c0.3,0.3,0.1,0.3,0.6,0.6c0.4,0.2,0.3,0.2,0.6,0.5c0.4,0.4,0.7,0.7,1.1,1.1
				c0.2,0.2,1.1,0.9,1.1,1.1h0.2c0,0.3,0.2,0.2,0.6,0.6c0.3,0.2,0.4,0.4,0.6,0.6c0.4,0.3,1,0.8,1.3,0.9c1.2,0.7,1.8,1.4,3,1.9
				c0.2,0.1,0.9,0.7,1.5,1c0.4,0.2,0.4,0.3,0.8,0.5c0.1,0.1,0.6,0.3,0.8,0.4c0.5,0.3,1.1,0.7,1.7,1c0.5,0.2,0.4,0.2,0.8,0.5
				c0.4,0.3,0.1-0.1,0.4,0.2c0.2,0.1,0.1,0.1,0.3,0.2c0.3,0.1,0.6,0.3,0.9,0.5c0.4,0.3,0.5,0.2,0.9,0.4c0.7,0.3,1.2,0.5,1.9,0.8
				c0.5,0.2,1.2,0.6,1.8,0.9c0.7,0.3,1.4,0.4,2.1,0.5c0.6,0.1,1.6,0.5,2,0.6c0.8,0.1,1.6,0.3,2.1,0.4c0.9,0.3,3.4,0.4,4,0.4l0,0.1
				l2.4-0.1l3.2-0.4l0.1,0l0,0.1l3.1-0.4l0-0.1l2.7-1l0-0.1h0.2v0.2h0.2v-0.2l1.5-1l0.6-0.2l0.9-0.9l0-0.2l1-1l0-0.2l0.1,0.1l2-2.3
				l-0.1-0.1c0.4,0,1.7-3,1.7-3.4l1.9-4l1.1-4.3l-0.1,0c1.5,0,3.8,0.6,3.9-0.9l-0.2-0.3c-0.7-0.1-0.3-0.7-1.5-0.7h-0.1l-2,0.2
				c-0.1-0.8,0-1.1-0.2-2c-0.1-0.6-0.3-1.3-0.4-2.1c-0.1-1.2,0-1.1-0.3-2c-0.1-0.4-0.3-1.7-0.3-1.8l-0.2,0l0.1-0.1l-0.9-3.2
				l-0.5-1.3l-0.2-0.9c-0.2,0-0.4-0.2-0.4-0.5c0-0.2,0-0.1,0.1-0.3c-0.2-0.1-0.4-0.4-0.4-0.5c0-1.1-0.7-1.9-1-2.9
				c-0.2-0.7-0.3-0.7-0.6-1.6c-0.1-0.3-0.5-1.2-0.9-1.2l-0.4-1l-0.7-1l0.1-0.1H103l0.1-0.1l-1.4-1.9c-0.3-0.1-1.9-1.8-2.1-2
				c-0.3-0.3-0.7-0.8-1.1-1c-0.3-0.2-1-0.6-1-0.9l-0.3,0.2l0-0.4l0,0.1l-1.5-0.7l0,0.1c-0.2-0.3-2.8-1.7-3.3-1.9
				c-0.7-0.2-4-1.2-4-1.5l0,0.1l-1.4-0.4l0-0.1c-0.9,0.1-2-0.4-3-0.6c-0.8-0.1-2.6-0.5-3-0.5l-0.5,0l-5.6-0.9c-0.2,0-0.3,0-0.5,0.1
				l0-0.1L73.1,2.6z"/>
		</g>
	</g>
	<path fill-rule="evenodd" clip-rule="evenodd" fill="#CB521E" d="M61.8,190.9c0.1,0.9,0.1,1.8,0.1,2.8c0,2.1-0.2,5.2-0.6,9.4
		c-0.4,4.2-0.6,7.4-0.6,9.5c0,0.8,0,1.6,0,2.3c-0.3,0.9-0.9,1.3-1.8,1.2c-1.3-0.1-2-0.6-2.2-1.7c-0.1-1.1-0.2-2.2-0.2-3.4
		c0-2.1,0.3-5.2,0.8-9.3c0.5-4.1,0.8-7.2,0.8-9.3c0-0.8,0-1.6-0.1-2.3c0.3-0.6,0.8-0.9,1.6-0.9c0.6,0,1.2,0.2,1.7,0.5
		c0.1-0.1,0.2-0.1,0.3-0.1c0.1,0,0.1,0.2,0.1,0.5c0,0.4,0,0.6,0,0.6C61.7,190.8,61.8,190.9,61.8,190.9L61.8,190.9z M42,154.2
		c-0.3,0-0.5-0.2-0.5-0.5c0-0.3,0.2-0.5,0.5-0.5h77.9c0.3,0,0.5,0.2,0.5,0.5c0,0.3-0.2,0.5-0.5,0.5H42L42,154.2z M106.3,211.9
		c0.2,0.5,0.3,0.9,0.3,1.3c0,0.6-0.3,1.1-0.8,1.6c-0.5,0.5-0.9,0.7-1.1,0.6c-1.5-0.3-2.4-1.5-2.8-3.6c-0.4-2.3-0.9-4.3-1.5-5.8
		c-1,0.1-2.1,0.2-3.1,0.3c-1.2,0.2-2.1,0.5-2.8,1.1c-0.3,0.9-0.8,2.6-1.3,5c-0.5,2.2-1,3.9-1.5,5.1c-0.2,0.6-0.8,0.7-1.6,0.5
		c-1-0.3-1.5-0.8-1.6-1.4c-0.1-1.2,0.2-2.7,1-4.7c0.9-2.2,1.4-3.8,1.5-4.8c0-0.3-0.2-0.6-0.6-0.9c-0.4-0.3-0.6-0.6-0.6-0.8
		c0-0.2,0.1-0.3,0.2-0.5c0.1-0.2,0.5-0.3,1-0.4c0.5-0.1,0.8-0.3,0.8-0.5c0.6-1.5,1.4-4.4,2.6-8.5c1-3.6,1.9-6.4,2.7-8.3
		c0.2-0.4,0.6-0.6,1.1-0.6c0.4,0,0.8,0.1,1.1,0.4c0.9,0.7,1.4,1.8,1.7,3.3c0.2,1.3,0.4,2.5,0.5,3.8
		C103.1,201.3,104.7,207.2,106.3,211.9L106.3,211.9z M99.6,203.1c-0.1-1.1-0.3-2.4-0.6-3.8c-0.3-1.2-0.6-2.4-0.9-3.7
		c-0.9,2.5-1.7,5.1-2.4,7.6C96.3,203.2,97.6,203.1,99.6,203.1L99.6,203.1z M86.9,186.3c0,0.6-0.4,1.1-1.3,1.6
		c-0.2,0.1-0.5,0.1-0.8,0c-0.4-0.1-0.7-0.2-0.7-0.2c-0.2,0-0.4,0.1-0.6,0.3c-1.7,1.7-2.5,3.7-2.5,6.1c0,0.9,0.1,1.7,0.4,2.5
		c0.1,0.3,1.3,2.7,3.5,7.1c1.5,2.9,2.2,5.4,2.2,7.5c0,1.7-0.4,3.3-1.2,4.9c-0.3,0.5-1,1.2-2.1,2c-0.9,0.6-1.7,1-2.4,1
		c-0.3,0-0.5,0-0.8-0.1c-0.9-0.4-1.4-0.9-1.4-1.5c0-0.4,0.2-0.8,0.7-1.3c0.1-0.2,0.4-0.2,0.9-0.3c0.5,0,0.8-0.2,0.9-0.6
		c0.6-1.3,1-2.7,1-4.1c0-2-1-4.9-3-8.7c-2-3.8-3-6.8-3-9.1c0-1.9,0.4-3.5,1.1-5c0.8-1.7,2-2.9,3.5-3.6c0.7-0.3,1.4-0.5,2.1-0.5
		c1.3,0,2.2,0.4,2.9,1.1C86.7,185.7,86.9,186,86.9,186.3L86.9,186.3z M74.2,186.3c0,0.6-0.4,1.1-1.3,1.6c-0.2,0.1-0.5,0.1-0.8,0
		c-0.4-0.1-0.7-0.2-0.7-0.2c-0.2,0-0.4,0.1-0.6,0.3c-1.7,1.7-2.5,3.7-2.5,6.1c0,0.9,0.1,1.7,0.4,2.5c0.1,0.3,1.3,2.7,3.5,7.1
		c1.5,2.9,2.2,5.4,2.2,7.5c0,1.7-0.4,3.3-1.2,4.9c-0.3,0.5-1,1.2-2.1,2c-0.9,0.6-1.7,1-2.4,1c-0.3,0-0.5,0-0.8-0.1
		c-0.9-0.4-1.4-0.9-1.4-1.5c0-0.4,0.2-0.8,0.7-1.3c0.1-0.2,0.4-0.2,0.9-0.3c0.5,0,0.8-0.2,0.9-0.6c0.6-1.3,1-2.7,1-4.1
		c0-2-1-4.9-3-8.7c-2-3.8-3-6.8-3-9.1c0-1.9,0.4-3.5,1.1-5c0.8-1.7,2-2.9,3.5-3.6c0.7-0.3,1.4-0.5,2.1-0.5c1.3,0,2.2,0.4,2.9,1.1
		C74,185.7,74.2,186,74.2,186.3z"/>
</g>
</svg>
