<!-- Generator: Adobe Illustrator 19.2.1, SVG Export Plug-In  -->
<svg version="1.1"
	 xmlns="http://www.w3.org/2000/svg" xmlns:xlink="http://www.w3.org/1999/xlink" xmlns:a="http://ns.adobe.com/AdobeSVGViewerExtensions/3.0/"
	 x="0px" y="0px" width="138.4px" height="81.4px" viewBox="0 0 138.4 81.4" enable-background="new 0 0 138.4 81.4"
	 xml:space="preserve">
<defs>
</defs>
<g>
	<g>
		<g>
			<g>
				<path fill-rule="evenodd" clip-rule="evenodd" fill="#1958A8" d="M55.1,43.4c0-2.1-0.1-3.8-0.1-5.3h4.4l0.2,2.3h0.1
					c0.7-1.1,2.2-2.7,5-2.7c2.2,0,3.8,1.1,4.5,2.9h0.1c0.6-0.9,1.3-1.6,2.2-2.1c0.9-0.5,1.9-0.8,3.1-0.8c3.2,0,5.6,2.3,5.6,7.3v9.8
					h-5v-9.1c0-2.4-0.8-3.8-2.4-3.8c-1.2,0-2,0.8-2.4,1.8c-0.1,0.4-0.2,0.9-0.2,1.3v9.8h-5v-9.4c0-2.1-0.7-3.5-2.4-3.5
					c-1.3,0-2.1,1-2.4,1.8c-0.2,0.4-0.2,0.9-0.2,1.3v9.7h-5V43.4"/>
				<path fill-rule="evenodd" clip-rule="evenodd" fill="#1958A8" d="M100.4,46.2c0,6.1-4.3,8.9-8.7,8.9c-4.8,0-8.5-3.2-8.5-8.6
					c0-5.4,3.5-8.9,8.8-8.9C97,37.6,100.4,41.2,100.4,46.2 M88.5,46.4c0,2.9,1.2,5,3.4,5c2,0,3.3-2,3.3-5.1c0-2.5-0.9-5-3.3-5
					C89.4,41.4,88.5,43.9,88.5,46.4z"/>
				<path fill-rule="evenodd" clip-rule="evenodd" fill="#1958A8" d="M103.6,30.5h5.1V40h0.1c1-1.4,2.7-2.4,5-2.4
					c4,0,6.8,3.3,6.8,8.4c0,6-3.8,9-7.5,9c-1.9,0-3.8-0.7-5-2.7H108l-0.2,2.3h-4.4c0.1-1.1,0.1-3.1,0.1-5V30.5 M108.7,47.7
					c0,0.3,0,0.7,0.1,0.9c0.3,1.4,1.5,2.5,3,2.5c2.2,0,3.5-1.7,3.5-4.7c0-2.6-1.1-4.7-3.5-4.7c-1.4,0-2.7,1.1-3,2.6
					c-0.1,0.3-0.1,0.6-0.1,1V47.7z"/>
				<path fill-rule="evenodd" clip-rule="evenodd" fill="#1958A8" d="M129.1,33.4c0,1.4-1.1,2.6-2.8,2.6c-1.6,0-2.7-1.2-2.7-2.6
					c0-1.5,1.1-2.6,2.7-2.6C128.1,30.8,129.1,31.9,129.1,33.4 M128.9,54.8h-5.1V38.1h5.1V54.8z"/>
				<rect x="133.1" y="30.5" fill="#1958A8" width="5.1" height="24.3"/>
				<g>
					<path fill-rule="evenodd" clip-rule="evenodd" fill="#1958A8" d="M126,0h11.4c0.5,0,0.9,0.4,0.9,0.9l0,24.9
						c0,0.5-0.4,0.9-0.9,0.9H126c-0.5,0-0.9-0.3-0.9-0.9l0-24.9C125.1,0.4,125.4,0,126,0"/>
					<path fill-rule="evenodd" clip-rule="evenodd" fill="#1958A8" d="M119.2,26.7H83.6c-7.3,0-13.2-6-13.2-13.4
						C70.4,6,76.3,0,83.6,0h25.7c0.8,0,1.1,0.8,0.8,1.3l-1,1.7c-0.1,0.2-0.4,0.4-0.7,0.4H93.5c-0.4,0-0.7,0-1.1,0.1l0,0
						c-0.9,0.1-1.8,0.3-2.7,0.7c-0.7,0.3-1.5,0.7-2.1,1.2l0,0l-0.1,0.1l0,0l-0.1,0.1l0,0l-0.1,0.1l0,0L87,5.8l0,0L86.8,6l0,0
						l-0.1,0.1l-0.1,0.1l-0.1,0.1l0,0.1l-0.1,0.1l-0.1,0.1l-0.1,0.1l-0.1,0L86,6.8L86,6.9c-0.1,0.1-0.2,0.3-0.3,0.4l-0.1,0.1
						l-0.1,0.1l-0.1,0.1l-0.1,0.1l-0.1,0.1l-0.1,0.1l-0.1,0.1L85.1,8l-0.1,0.1L85,8.2l-0.1,0.1l-0.1,0.1l-0.1,0.1l0,0.1l-0.1,0.1
						l-0.1,0.1l0,0.1l0,0.1l-0.1,0.1l0,0.1l-0.1,0.1l0,0.1l-0.1,0.1l0,0.1l-0.1,0.2l0,0.1l-0.1,0.2l0,0.1l0,0.2l0,0.1l0,0.1l0,0.1
						l0,0.1l0,0.1l0,0.1l0,0.1l0,0.1l0,0.1l0,0.1l0,0.1l0,0.1l0,0.1l0,0.1l0,0.1l0,0.1l0,0.1l0,0.1l0,0.1l0,0.1l0,0.1V13l0,0.1v0.2
						l0,0.3l0,0.1v0.2l0,0.1l0,0.2v0.1l0,0.1l0,0.1l0,0.1l0,0.1l0,0.1l0,0.1l0,0.1l0,0.1l0,0.1l0,0.1l0,0.1l0,0.1l0,0.1l0,0.1l0,0.1
						l0,0.1l0.1,0.1l0,0.1l0.1,0.2v0l0.1,0.2l0,0l0.1,0.2l0,0.1l0.1,0.2l0,0.1l0.1,0.1l0,0.1l0.1,0.1l0,0.1l0.1,0.1l0,0.1l0.1,0.1
						l0.1,0.1l0.1,0.1l0.1,0.1l0.1,0.1l0.1,0.1l0.1,0.1l0.1,0.1l0.1,0.1l0,0.1l0.1,0.1l0,0.1l0.1,0.1l0,0.1l0.1,0.1l0,0l0.1,0.2
						l0,0.1l0.1,0.1l0,0.1l0.1,0.1l0.1,0.1l0.1,0.1l0.1,0.1l0.1,0.1l0.1,0.1l0.1,0.1l0.1,0.1l0.1,0.1l0.1,0.1l0.1,0.1l0.1,0.1
						l0.1,0.1l0.1,0.1l0.1,0.1l0.1,0.1l0.1,0.1l0.1,0.1l0.1,0.1l0.1,0.1l0.1,0c0.2,0.1,0.4,0.3,0.6,0.4l0.1,0l0.1,0.1l0.1,0.1
						l0.1,0.1l0.1,0.1l0.1,0.1l0.1,0l0.1,0.1l0.1,0l0.1,0.1l0.1,0l0.1,0.1l0.1,0l0.1,0.1l0.1,0l0.1,0.1l0.1,0l0.2,0.1l0.1,0l0.2,0.1
						l0.1,0l0.2,0.1c0.3,0.1,0.6,0.1,0.8,0.2l0,0l0.2,0l0.1,0l0.2,0l0.1,0l0.2,0c0.4,0,0.8,0.1,1.2,0.1h15.1l0-10.8
						c0-0.5,0.3-0.9,0.9-0.9H121c0.5,0,0.9,0.4,0.9,0.9l0,13.2c0,0.5-0.3,0.9-0.9,0.9H119.2"/>
					<path fill-rule="evenodd" clip-rule="evenodd" fill="#1958A8" d="M54.8,0h11.4c0.5,0,0.9,0.4,0.9,0.9l0,24.9
						c0,0.5-0.4,0.9-0.9,0.9H54.9c-0.5,0-0.9-0.3-0.9-0.9l0-24.9C54,0.4,54.3,0,54.8,0"/>
					<path fill-rule="evenodd" clip-rule="evenodd" fill="#1958A8" d="M12.3,26.7H0.9c-0.5,0-0.9-0.4-0.9-0.9L0,0.9
						C0,0.4,0.4,0,0.9,0h36.9C45.1,0,51,6,51,13.4c0,7.4-5.9,13.4-13.2,13.4H12.3 M13.2,23.4h14.7c0.4,0,0.7,0,1.1-0.1
						c1.1-0.1,2.1-0.4,3.1-0.9c0.6-0.3,1.2-0.6,1.7-1l0,0l0.1-0.1l0,0l0.1-0.1l0.1,0l0.1-0.1l0.1,0l0.1-0.1l0.1,0l0.1-0.1l0,0
						l0.1-0.1l0.1-0.1l0.1-0.1l0.1-0.1l0.1-0.1l0.1-0.1l0.1-0.1l0.1,0l0.1-0.1l0,0c0.1-0.1,0.2-0.3,0.3-0.4l0.1-0.1l0.1-0.1l0.1-0.1
						l0.1-0.1l0.1-0.1l0-0.1l0.1-0.1l0.1-0.1l0.1-0.1l0.1-0.1l0.1-0.1l0.1-0.1l0.1-0.1l0.1-0.1l0.1-0.1l0-0.1l0.1-0.1l0.1-0.1l0-0.1
						l0-0.1l0.1-0.1l0-0.1l0.1-0.1l0-0.1l0.1-0.1l0-0.1l0.1-0.2l0-0.1l0.1-0.2l0-0.1l0-0.1l0-0.1l0-0.1l0-0.1l0-0.1l0-0.1l0-0.1
						l0-0.1l0-0.1l0-0.1l0-0.1l0-0.1l0-0.1l0-0.1l0-0.1l0-0.1l0-0.1l0-0.1l0-0.2l0-0.1v-0.2l0-0.1l0-0.3l0-0.2l0-0.1l0-0.2v-0.1
						l0-0.2l0-0.1l0-0.1l0-0.1l0-0.1l0-0.1l0-0.1l0-0.1l0-0.1l0-0.1l0-0.1l0-0.1l0-0.1l0-0.1l0-0.1l0-0.1l0-0.1l0-0.1l0-0.2l0-0.1
						l-0.1-0.2l0-0.1l-0.1-0.2l0-0.1l-0.1-0.2l0-0.1L37,9.5l0-0.1l-0.1-0.1l0-0.1L36.8,9l0-0.1l-0.1-0.1l-0.1-0.1l-0.1-0.1l-0.1-0.1
						l-0.1-0.1l0-0.1l-0.1-0.1l0-0.1L36.3,8l-0.1-0.1l-0.1-0.1l-0.1-0.1L36,7.6l-0.1-0.1l-0.1-0.1l0-0.1l-0.1-0.1l-0.1-0.1L35.5,7
						l-0.1-0.1l-0.1-0.1l-0.1-0.1l0-0.1l-0.1-0.1l-0.1-0.1L35,6.4l-0.1-0.1l-0.1-0.1l-0.1-0.1l-0.1-0.1L34.6,6l-0.1-0.1l-0.1-0.1
						l-0.1-0.1l-0.1-0.1l-0.1-0.1l-0.1-0.1l-0.1-0.1l-0.1-0.1l-0.1-0.1l-0.1-0.1l-0.1-0.1l-0.1-0.1L33.4,5L33.3,5l-0.2-0.1l-0.1,0
						l-0.1-0.1l-0.1,0l-0.1-0.1l-0.1,0l-0.1-0.1l-0.1,0l-0.1-0.1l-0.1,0l-0.1-0.1l-0.2-0.1l-0.1,0l-0.1,0l-0.1,0L31.5,4l-0.1,0
						l-0.1,0l-0.1,0L31,3.8l-0.1,0l-0.1,0l-0.1,0l-0.2,0l0,0c-0.2-0.1-0.4-0.1-0.6-0.2l-0.2,0l-0.1,0l-0.2,0l-0.1,0l-0.2,0l-0.1,0
						l-0.2,0c-0.4,0-0.7-0.1-1.1-0.1H13.2L13.2,23.4L13.2,23.4z"/>
				</g>
			</g>
		</g>
		<g>
			<path fill="#1958A8" d="M49.1,57.4c0,1.2-0.8,2.5-2.5,3.9c-1.5,1.3-2.6,1.9-3.3,1.9c-0.8,0-1.2-0.2-1.2-0.6
				c0-0.4,0.4-0.7,1.2-0.9c1.1-0.3,2.1-0.9,3-1.8c0.9-0.9,1.3-1.7,1.3-2.3c0-0.5-0.3-0.7-0.8-0.7c-1,0-2.2,0.5-3.6,1.6
				c-1.7,1.3-2.6,2.6-2.6,4.1c0,0.6,0.7,2,2.1,4.4c0.6,1.1,1,2.1,1,3.1c0,1.2-0.7,2.2-2.1,2.9c-1.1,0.6-2.2,0.9-3.3,0.9
				c-1.2,0-2.2-0.3-2.8-0.9c-0.6-0.5-0.9-1.2-0.9-2c0-0.7,0.3-1.4,0.8-2c0.6-0.6,1.2-0.9,1.8-0.9c0.3,0,0.5,0,0.6,0.1
				c0.2,0.1,0.2,0.2,0.3,0.3c0,0.3-0.3,0.6-0.8,0.8c-0.4,0.1-0.7,0.3-0.9,0.6C36,70.1,36,70.3,36,70.7c0,0.5,0.2,0.9,0.6,1.2
				c0.4,0.4,0.9,0.6,1.5,0.6c0.1,0,0.3,0,0.5,0c1,0,1.8-0.3,2.5-0.9c0.7-0.6,1.1-1.2,1.1-1.8c0-0.9-0.7-2.3-2-4.1
				c-0.7-0.9-1-1.9-1-2.9c0-1.6,0.8-3.2,2.3-4.7c1.6-1.7,3.5-2.5,5.7-2.5c0.6,0,1.1,0.2,1.5,0.5S49.1,56.9,49.1,57.4z"/>
			<path fill="#1958A8" d="M53.2,69.1c0,0.6-0.6,1.4-1.9,2.5c-1.4,1.1-2.6,1.7-3.7,1.7c-0.5,0-1-0.2-1.4-0.6
				c-0.4-0.4-0.6-0.9-0.6-1.5c0-0.8,0.2-1.6,0.7-2.5c0.4-0.8,0.8-1.4,1.3-1.9c0.7-0.7,1.3-1.3,1.9-1.6c0.5-0.3,1-0.5,1.3-0.5
				c0.3,0,0.6,0.1,0.8,0.3c0.2,0.2,0.3,0.5,0.3,0.8c0,0.6-0.3,1.2-0.9,2c-0.4,0.6-1,1.1-1.5,1.6c-0.3,0.3-0.6,0.5-1.1,0.8
				c-0.4,0.2-0.7,0.3-1.2,0.5c0,0.4,0.1,0.7,0.3,0.9c0.2,0.2,0.4,0.3,0.8,0.3c0.5,0,1.2-0.3,2-0.8c0.8-0.5,1.5-1.2,2.1-1.9
				c0.3-0.3,0.5-0.5,0.6-0.5C53.1,68.8,53.2,68.9,53.2,69.1z M50.5,66.6c0-0.2-0.1-0.3-0.3-0.4c-0.3,0-0.6,0.2-1,0.6
				c-0.3,0.3-0.6,0.7-1,1.2c-0.4,0.5-0.7,0.9-0.9,1.3c0.6,0,1.3-0.3,2-1C50.1,67.6,50.5,67,50.5,66.6z"/>
			<path fill="#1958A8" d="M63.7,65.8c-0.8,1.1-1.6,2.1-2.2,3c-0.7,1-1,1.9-1,2.6c0,0.3,0.2,0.7,0.5,1.1c0.2,0.2,0.3,0.4,0.3,0.5
				c0,0.2-0.1,0.4-0.2,0.6c-0.2,0.2-0.3,0.2-0.6,0.2c-0.3,0-0.6-0.3-0.9-0.8c-0.3-0.5-0.4-1-0.4-1.6c0-0.5,0.1-1,0.3-1.6
				c0.2-0.5,0.6-1.2,1-1.9c-1.1,0.9-2,1.9-2.6,3c-0.9,1.5-1.5,2.3-1.8,2.3c-0.3,0-0.4-0.2-0.4-0.6c0-0.5,0.2-1.2,0.7-2.2
				c0.4-0.9,0.8-1.6,1.2-2.2c-0.8,0.5-1.5,1.2-2.1,2.2c-0.6,0.9-1,1.8-1.4,2.8c-0.1,0.4-0.3,0.6-0.7,0.6c-0.4,0-0.6-0.3-0.6-0.8
				c0.2-1.3,0.8-3,1.9-5c1-2,1.8-3,2.3-3c0.4,0,0.6,0.1,0.6,0.3c0,0.1-0.3,0.7-0.8,1.6c-0.4,0.6-0.7,1.1-0.8,1.5
				c0.7-0.7,1.5-1.3,2.2-2c0.6-0.5,1.1-0.7,1.6-0.7c0.4,0,0.5,0.1,0.5,0.3c0,0.2-0.2,0.6-0.6,1.1c-0.5,0.6-0.7,1-0.7,1.1
				c0.3-0.2,0.9-0.7,1.6-1.4c1.1-1,2-1.5,2.5-1.5c0.3,0,0.5,0,0.6,0.1C63.6,65.5,63.7,65.6,63.7,65.8z"/>
			<path fill="#1958A8" d="M70.9,66.5c0,1-0.6,2.4-1.8,4c-1.3,1.8-2.6,2.8-3.8,2.8c-0.5,0-0.8-0.2-1.1-0.5c-1,1.9-1.8,3.9-2.5,5.8
				c-0.7,1.9-1.3,2.8-1.7,2.8c-0.3,0-0.4-0.2-0.4-0.5c0-0.6,0.4-1.8,1.1-3.5c0.5-1.1,1.2-2.6,2.2-4.6c0.4-0.9,0.9-1.8,1.4-2.7
				c1-1.9,2-3.9,3-5.8c0.4-0.6,0.7-0.9,1-0.9c0.4,0,0.6,0.1,0.6,0.4c0,0.2-0.1,0.5-0.3,1c-0.1,0.2-0.3,0.6-0.7,1.1
				c0.7-0.6,1.4-0.8,2-0.8C70.5,65.1,70.9,65.6,70.9,66.5z M69.4,66.9c0-0.4-0.1-0.6-0.4-0.6c-0.6,0-1.2,0.5-2,1.4
				c-0.8,0.9-1.6,2.3-2.5,4c0.2,0.2,0.4,0.3,0.7,0.3c0.8,0,1.7-0.7,2.6-2C68.9,68.8,69.4,67.7,69.4,66.9z"/>
			<path fill="#1958A8" d="M79.5,67.3c0,0.4-0.4,0.8-1.2,1.4c-0.8,0.5-1.5,0.8-2.1,0.8c-0.4,0-0.7-0.1-1-0.3
				c-0.2-0.2-0.3-0.5-0.3-0.9c0-0.2,0-0.3,0-0.4c-0.8,0.8-1.5,1.6-2.2,2.7c-0.8,1.1-1.2,1.9-1.3,2.4c-0.1,0.4-0.3,0.6-0.5,0.8
				c-0.2,0.2-0.5,0.3-0.7,0.3c-0.4,0-0.6-0.2-0.6-0.5c0-0.7,0.7-2.3,2-4.7c1.3-2.4,2.3-3.6,2.9-3.6c0.2,0,0.4,0.1,0.4,0.2
				c0,0.2-0.4,0.7-1.1,1.8c-0.4,0.5-0.7,1-0.8,1.4c0.8-0.7,1.7-1.5,2.5-2.2c1-0.9,1.8-1.3,2.1-1.3c0.4,0,0.5,0.1,0.5,0.3
				c0,0.2-0.1,0.4-0.4,0.7c-0.5,0.4-0.9,0.8-1.1,1.1c-0.2,0.3-0.3,0.5-0.3,0.7c0,0.2,0.2,0.3,0.4,0.3c0.3,0,0.6-0.1,1-0.2
				c0.3-0.2,0.6-0.4,0.9-0.6c0.2-0.2,0.4-0.3,0.5-0.3C79.4,66.9,79.5,67,79.5,67.3z"/>
			<path fill="#1958A8" d="M86.8,69.1c0,0.6-0.6,1.4-1.9,2.5c-1.4,1.1-2.6,1.7-3.7,1.7c-0.5,0-1-0.2-1.4-0.6
				c-0.4-0.4-0.6-0.9-0.6-1.5c0-0.8,0.2-1.6,0.7-2.5c0.4-0.8,0.8-1.4,1.3-1.9c0.7-0.7,1.3-1.3,1.9-1.6c0.5-0.3,1-0.5,1.3-0.5
				c0.3,0,0.6,0.1,0.8,0.3c0.2,0.2,0.3,0.5,0.3,0.8c0,0.6-0.3,1.2-0.9,2c-0.4,0.6-1,1.1-1.5,1.6c-0.3,0.3-0.6,0.5-1.1,0.8
				c-0.4,0.2-0.7,0.3-1.2,0.5c0,0.4,0.1,0.7,0.3,0.9c0.2,0.2,0.4,0.3,0.8,0.3c0.5,0,1.2-0.3,2-0.8c0.8-0.5,1.5-1.2,2.1-1.9
				c0.3-0.3,0.5-0.5,0.6-0.5C86.7,68.8,86.8,68.9,86.8,69.1z M84.1,66.6c0-0.2-0.1-0.3-0.3-0.4c-0.3,0-0.6,0.2-1,0.6
				c-0.3,0.3-0.6,0.7-1,1.2c-0.4,0.5-0.7,0.9-0.9,1.3c0.6,0,1.3-0.3,2-1C83.7,67.6,84.1,67,84.1,66.6z"/>
			<path fill="#1958A8" d="M95.6,65.3c0,0.3-0.1,0.5-0.3,0.8c-0.5,0.6-1.1,1.6-1.9,3.2c-0.8,1.6-1.2,2.7-1.3,3.3
				c-0.1,0.6-0.3,0.9-0.7,0.8c-0.1,0-0.3-0.1-0.4-0.3c-0.1-0.2-0.2-0.4-0.2-0.6c0-0.9,0.4-2.1,1.2-3.7c0.7-1.3,1.5-2.5,2.3-3.7
				c0.1-0.1,0.2-0.2,0.3-0.3c0.1-0.1,0.3-0.2,0.4-0.2C95.5,64.8,95.6,65,95.6,65.3z M98.4,60.3c0,0.4-0.2,0.9-0.7,1.3
				c-0.4,0.5-0.8,0.7-1.1,0.7c-0.4,0-0.6-0.2-0.6-0.7c0-0.4,0.2-0.8,0.6-1.3c0.4-0.5,0.8-0.7,1.1-0.7C98.2,59.7,98.4,59.9,98.4,60.3
				z"/>
			<path fill="#1958A8" d="M102.9,65.6c0,0.2-0.2,0.6-0.5,1c-1,1.5-1.6,2.3-1.6,2.4c-0.3,0.6-0.5,1.1-0.7,1.6
				c-0.2,0.7-0.4,1.3-0.4,1.8c0,0.3,0.1,0.6,0.2,0.8c0.2,0.5,0.3,0.8,0.3,0.9c0,0.4-0.2,0.5-0.5,0.5c-0.3,0-0.6-0.2-0.9-0.6
				c-0.3-0.4-0.5-0.9-0.5-1.5c0-0.7,0.1-1.4,0.4-2.3c0.2-0.7,0.5-1.3,0.7-1.9c-0.8,0.6-1.5,1.3-2.2,2.3c-1.1,1.7-1.8,2.5-2.2,2.5
				c-0.3,0-0.4-0.2-0.4-0.5c0-0.4,0.3-1.1,0.9-2.3c0.3-0.5,0.6-1.2,1-1.9c1.2-2.2,2-3.3,2.3-3.3c0.4,0,0.6,0.2,0.6,0.5
				c0,0.3-0.2,0.7-0.5,1.2c-0.2,0.4-0.5,0.8-0.7,1.2c0.1-0.1,0.6-0.6,1.6-1.5c1-1,1.8-1.5,2.4-1.5C102.6,65.3,102.9,65.4,102.9,65.6
				z"/>
			<path fill="#1958A8" d="M110.2,65.6c0,0.7-0.3,1.2-0.9,1.8c-0.7,0.6-1.5,0.9-2.5,0.9c-0.2,0-0.4,0-0.6-0.1
				c-0.2-0.1-0.2-0.2-0.2-0.4c0-0.3,0.3-0.5,1-0.6c0.5-0.1,0.9-0.2,1.2-0.5c0.3-0.3,0.5-0.6,0.5-0.9c0-0.4-0.2-0.6-0.7-0.6
				c-0.7,0-1.3,0.2-1.8,0.7c-0.6,0.5-0.8,1-0.8,1.7c0,0.3,0.2,0.9,0.6,1.7c0.4,0.8,0.6,1.6,0.6,2.4c0,0.6-0.2,1.1-0.6,1.5
				c-0.4,0.4-1,0.6-1.8,0.6c-0.8,0-1.4-0.2-1.8-0.7c-0.4-0.5-0.6-1.1-0.6-1.8c0-0.6,0.1-1.1,0.4-1.6c0.3-0.5,0.6-0.7,1-0.7
				c0.2,0,0.3,0.1,0.3,0.3c0,0.1,0,0.3-0.1,0.4c-0.2,0.4-0.3,0.7-0.3,1.1c0,0.5,0.1,0.9,0.4,1.3c0.2,0.4,0.5,0.6,0.8,0.6
				c0.8,0,1.2-0.3,1.2-1c0-0.3-0.1-0.7-0.3-1.1c-0.2-0.4-0.4-0.8-0.7-1.3c-0.3-0.5-0.4-1-0.4-1.5c0-1,0.5-1.9,1.4-2.6
				c0.9-0.7,1.9-1.1,3-1.1c0.6,0,1.1,0.1,1.5,0.4C110,64.8,110.2,65.1,110.2,65.6z"/>
			<path fill="#1958A8" d="M113.6,65.3c0,0.3-0.1,0.5-0.3,0.8c-0.5,0.6-1.1,1.6-1.9,3.2c-0.8,1.6-1.2,2.7-1.3,3.3
				c-0.1,0.6-0.3,0.9-0.7,0.8c-0.1,0-0.3-0.1-0.4-0.3c-0.1-0.2-0.2-0.4-0.2-0.6c0-0.9,0.4-2.1,1.2-3.7c0.7-1.3,1.5-2.5,2.3-3.7
				c0.1-0.1,0.2-0.2,0.3-0.3c0.1-0.1,0.3-0.2,0.4-0.2C113.5,64.8,113.6,65,113.6,65.3z M116.3,60.3c0,0.4-0.2,0.9-0.6,1.3
				c-0.4,0.5-0.8,0.7-1.1,0.7c-0.4,0-0.6-0.2-0.6-0.7c0-0.4,0.2-0.8,0.6-1.3c0.4-0.5,0.8-0.7,1.1-0.7
				C116.1,59.7,116.3,59.9,116.3,60.3z"/>
			<path fill="#1958A8" d="M120.6,69.1c0,0.6-0.6,1.4-1.9,2.5c-1.4,1.1-2.6,1.7-3.7,1.7c-0.5,0-1-0.2-1.4-0.6
				c-0.4-0.4-0.6-0.9-0.6-1.5c0-0.8,0.2-1.6,0.7-2.5c0.4-0.8,0.8-1.4,1.3-1.9c0.7-0.7,1.3-1.3,1.9-1.6c0.5-0.3,1-0.5,1.3-0.5
				c0.3,0,0.6,0.1,0.8,0.3c0.2,0.2,0.3,0.5,0.3,0.8c0,0.6-0.3,1.2-0.9,2c-0.4,0.6-1,1.1-1.5,1.6c-0.3,0.3-0.6,0.5-1.1,0.8
				c-0.4,0.2-0.7,0.3-1.2,0.5c0,0.4,0.1,0.7,0.3,0.9c0.2,0.2,0.4,0.3,0.8,0.3c0.5,0,1.2-0.3,2-0.8c0.8-0.5,1.5-1.2,2.1-1.9
				c0.3-0.3,0.5-0.5,0.6-0.5C120.5,68.8,120.6,68.9,120.6,69.1z M117.9,66.6c0-0.2-0.1-0.3-0.3-0.4c-0.3,0-0.6,0.2-1,0.6
				c-0.3,0.3-0.6,0.7-1,1.2c-0.4,0.5-0.7,0.9-0.9,1.3c0.6,0,1.3-0.3,2-1C117.5,67.6,117.9,67,117.9,66.6z"/>
			<path fill="#1958A8" d="M131.1,65.8c-0.8,1.1-1.6,2.1-2.2,3c-0.7,1-1,1.9-1,2.6c0,0.3,0.2,0.7,0.5,1.1c0.2,0.2,0.3,0.4,0.3,0.5
				c0,0.2-0.1,0.4-0.2,0.6c-0.2,0.2-0.3,0.2-0.6,0.2c-0.3,0-0.6-0.3-0.9-0.8c-0.3-0.5-0.4-1-0.4-1.6c0-0.5,0.1-1,0.3-1.6
				c0.2-0.5,0.6-1.2,1-1.9c-1.1,0.9-2,1.9-2.6,3c-0.9,1.5-1.5,2.3-1.8,2.3c-0.3,0-0.4-0.2-0.4-0.6c0-0.5,0.2-1.2,0.7-2.2
				c0.4-0.9,0.8-1.6,1.2-2.2c-0.8,0.5-1.5,1.2-2.1,2.2c-0.6,0.9-1,1.8-1.4,2.8c-0.1,0.4-0.3,0.6-0.7,0.6c-0.4,0-0.6-0.3-0.6-0.8
				c0.2-1.3,0.8-3,1.9-5c1-2,1.8-3,2.3-3c0.4,0,0.6,0.1,0.6,0.3c0,0.1-0.3,0.7-0.8,1.6c-0.4,0.6-0.7,1.1-0.8,1.5
				c0.7-0.7,1.5-1.3,2.2-2c0.6-0.5,1.1-0.7,1.6-0.7c0.4,0,0.5,0.1,0.5,0.3c0,0.2-0.2,0.6-0.6,1.1c-0.5,0.6-0.7,1-0.7,1.1
				c0.3-0.2,0.9-0.7,1.6-1.4c1.2-1,2-1.5,2.5-1.5c0.3,0,0.5,0,0.6,0.1C131,65.5,131.1,65.6,131.1,65.8z"/>
			<path fill="#1958A8" d="M138.4,69.1c0,0.6-0.6,1.4-1.9,2.5c-1.4,1.1-2.6,1.7-3.7,1.7c-0.5,0-1-0.2-1.4-0.6
				c-0.4-0.4-0.6-0.9-0.6-1.5c0-0.8,0.2-1.6,0.7-2.5c0.4-0.8,0.8-1.4,1.3-1.9c0.7-0.7,1.3-1.3,1.9-1.6c0.5-0.3,1-0.5,1.3-0.5
				c0.3,0,0.6,0.1,0.8,0.3c0.2,0.2,0.3,0.5,0.3,0.8c0,0.6-0.3,1.2-0.9,2c-0.4,0.6-1,1.1-1.5,1.6c-0.3,0.3-0.6,0.5-1.1,0.8
				c-0.4,0.2-0.7,0.3-1.2,0.5c0,0.4,0.1,0.7,0.3,0.9c0.2,0.2,0.4,0.3,0.8,0.3c0.5,0,1.2-0.3,2-0.8c0.8-0.5,1.5-1.2,2.1-1.9
				c0.3-0.3,0.5-0.5,0.6-0.5C138.3,68.8,138.4,68.9,138.4,69.1z M135.7,66.6c0-0.2-0.1-0.3-0.3-0.4c-0.3,0-0.6,0.2-1,0.6
				c-0.3,0.3-0.6,0.7-1,1.2c-0.4,0.5-0.7,0.9-0.9,1.3c0.6,0,1.3-0.3,2-1C135.3,67.6,135.7,67,135.7,66.6z"/>
		</g>
	</g>
</g>
</svg>
