<svg id="Layer_1" data-name="Layer 1" xmlns="http://www.w3.org/2000/svg" viewBox="0 0 318.15 105.69"><title>icr</title><path d="M128.05,26.38a0.13,0.13,0,0,1-.13.16h-8.55a0.19,0.19,0,0,1-.23-0.19V25.51a0.2,0.2,0,0,1,.2-0.26h1.92c0.16,0,.23-0.18.23-0.54q0-.2,0-9.71t0-9.76q0-3.63-.62-3.63h-1.77a0.21,0.21,0,0,1-.26-0.19V0.5A0.15,0.15,0,0,1,119,.35h8.58a0.13,0.13,0,0,1,.15.15v1a0.15,0.15,0,0,1-.18.16h-2a0.26,0.26,0,0,0-.32.27q0,0.11,0,8.7t0,9.17c0,1.82,0,2.88,0,3.19,0.08,1.53.31,2.3,0.68,2.3h2a0.15,0.15,0,0,1,.17.18v0.95Z" style="fill:#231f20"/><path d="M154.62,1.37a0.21,0.21,0,0,1-.23.25H152c-0.26,0-.38.16-0.38,0.5,0,0.1,0,1.81,0,5.11s0,5.09,0,5.37,0,2.58-.06,6.9-0.07,6.6-.07,6.84a1,1,0,0,1-.26.91,0.6,0.6,0,0,1-.82-0.23L140.93,13.8q-2.46-3.72-5.89-8.4c-0.16-.17-0.27-0.11-0.33.17s-0.13,2.32-.26,6.49-0.2,6.89-.2,8q0,5.14.92,5.14h2.05a0.17,0.17,0,0,1,.21.18v0.95a0.15,0.15,0,0,1-.18.16h-6.85c-0.15,0-.22,0-0.22-0.12V25.47a0.19,0.19,0,0,1,.22-0.22h2a0.25,0.25,0,0,0,.29-0.26V22.22q0-1.14.3-9c0.21-5.24.32-7.93,0.32-8,0-2.37-.78-3.55-2.35-3.55h-1.11c-0.09,0-.13-0.06-0.13-0.19V0.54a0.15,0.15,0,0,1,.16-0.19h5.91a0.5,0.5,0,0,1,.45.31c0.12,0.21,1.1,1.67,2.93,4.37s2.88,4.19,3.11,4.49q3.54,4.89,7.5,10.14a0.22,0.22,0,0,0,.13.05c0.1,0,.16-0.18.17-0.54s0-2.22,0-5.93,0-5.74,0-6.1c-0.16-3.68-.59-5.52-1.27-5.52h-2a0.2,0.2,0,0,1-.25-0.19V0.54a0.18,0.18,0,0,1,.21-0.19h7.61c0.17,0,.26,0,0.26.15V1.37Z" style="fill:#231f20"/><path d="M170.88,19.58a7.19,7.19,0,0,1-2,5.05,6.77,6.77,0,0,1-2.44,1.7,11.32,11.32,0,0,1-3.71.5,11.94,11.94,0,0,1-6.3-1.81,0.9,0.9,0,0,1-.25-0.8c0-.09,0-0.88,0-2.36s0-2.27,0-2.4,0.12-.22.34-0.22h0.69a0.28,0.28,0,0,1,.33.22,9.53,9.53,0,0,0,.1,1.39,5.31,5.31,0,0,0,1.56,3,4.85,4.85,0,0,0,3.58,1.29A4.35,4.35,0,0,0,167,22.87a6.37,6.37,0,0,0,.5-2.74,3.31,3.31,0,0,0-.92-2.46A7.7,7.7,0,0,0,163,15.51a12.92,12.92,0,0,1-4.75-2.85,7.16,7.16,0,0,1-1.79-5.29A7.34,7.34,0,0,1,159,1.78,7.13,7.13,0,0,1,164,0a7.69,7.69,0,0,1,5.34,1.74,0.88,0.88,0,0,1,.31.52,30.76,30.76,0,0,1,.18,4c0,0.27-.05.4-0.15,0.4h-0.82a0.25,0.25,0,0,1-.24-0.23c-0.09-.45-0.2-0.94-0.34-1.47A3.71,3.71,0,0,0,167.08,3a6.25,6.25,0,0,0-4-1.22A3.7,3.7,0,0,0,160.23,3a4.77,4.77,0,0,0-1.08,3.36A4.47,4.47,0,0,0,160.23,9a14.61,14.61,0,0,0,3.84,2.17,29.8,29.8,0,0,1,2.86,1.45,10.48,10.48,0,0,1,2.5,2.08A7.23,7.23,0,0,1,170.88,19.58Z" style="fill:#231f20"/><path d="M193.16,0.49c-0.09.61-.29,1.66-0.62,3.12a0.38,0.38,0,0,1-.42.29,0.52,0.52,0,0,1-.53-0.33,1.68,1.68,0,0,0-1.11-1.06,20.87,20.87,0,0,0-2.91-.4c-1.49-.15-2.51-0.23-3-0.23a0.24,0.24,0,0,0-.25.27q-0.2,5-.19,17.8c0,3.51.26,5.26,0.78,5.26h2.67c0.07,0,.1.05,0.1,0.17v0.91c0,0.13,0,.19-0.1.19h-9.65a0.16,0.16,0,0,1-.16-0.19V25.42c0-.15.06-0.22,0.16-0.22h2.44c0.2,0,.3-0.14.3-0.43,0,0,0-.69,0-2s0-2,0-2.3,0-2.41.08-6.59,0.08-6.36.08-6.54c0-3.7-.18-5.54-0.56-5.54a20.2,20.2,0,0,0-6.21.79,2.61,2.61,0,0,0-1.08.82,2.38,2.38,0,0,1-.73.68A0.6,0.6,0,0,1,171.5,4a0.62,0.62,0,0,1,.1-0.64c0.29-1.13.57-2.16,0.86-3.09a0.28,0.28,0,0,1,.38-0.19c0.19,0,1.56.11,4.12,0.23,2.74,0.13,4.59.2,5.56,0.2,3.23,0,6.26,0,9.08-.16,0.34,0,.65,0,0.94-0.08l0.36-.08A0.26,0.26,0,0,1,193.16.49Z" style="fill:#231f20"/><path d="M203.38,26.38a0.12,0.12,0,0,1-.13.16H194.7a0.19,0.19,0,0,1-.23-0.19V25.51c0-.17.07-0.26,0.2-0.26h1.92c0.15,0,.23-0.18.23-0.54q0-.2,0-9.71t0-9.76q0-3.63-.62-3.63h-1.76a0.21,0.21,0,0,1-.26-0.19V0.5a0.14,0.14,0,0,1,.18-0.15h8.58a0.13,0.13,0,0,1,.15.15v1a0.15,0.15,0,0,1-.18.16h-2a0.26,0.26,0,0,0-.32.27c0,0.07,0,3,0,8.7s0,8.78,0,9.17c0,1.82,0,2.88,0,3.19,0.08,1.53.31,2.3,0.68,2.3h2a0.15,0.15,0,0,1,.16.18v0.95Z" style="fill:#231f20"/><path d="M225.74,0.49c-0.08.61-.29,1.66-0.62,3.12a0.37,0.37,0,0,1-.41.29,0.51,0.51,0,0,1-.53-0.33,1.69,1.69,0,0,0-1.12-1.06,20.52,20.52,0,0,0-2.9-.4c-1.5-.15-2.51-0.23-3-0.23a0.24,0.24,0,0,0-.25.27q-0.21,5-.21,17.8c0,3.51.27,5.26,0.79,5.26h2.67c0.07,0,.1.05,0.1,0.17v0.91c0,0.13,0,.19-0.1.19h-9.65a0.16,0.16,0,0,1-.17-0.19V25.42c0-.15.06-0.22,0.17-0.22h2.44c0.2,0,.3-0.14.3-0.43,0,0,0-.69,0-2s0-2,0-2.3,0-2.41.08-6.59,0.08-6.36.08-6.54c0-3.7-.18-5.54-0.54-5.54a20.13,20.13,0,0,0-6.22.79,2.62,2.62,0,0,0-1.09.82,2.38,2.38,0,0,1-.73.68A0.62,0.62,0,0,1,204.08,4a0.69,0.69,0,0,1,.1-0.64c0.29-1.13.59-2.16,0.88-3.09a0.27,0.27,0,0,1,.37-0.19c0.19,0,1.57.11,4.13,0.23,2.73,0.13,4.58.2,5.56,0.2q4.84,0,9.08-.16c0.33,0,.64,0,0.94-0.08l0.38-.08A0.25,0.25,0,0,1,225.74.49Z" style="fill:#231f20"/><path d="M250.45,1.37c0,0.17,0,.25-0.13.25h-0.68a14.36,14.36,0,0,0-1.61,0c0-.12,0,0.66-0.07,2.33s-0.07,3.55-.08,5.22q0,3.53,0,6.37,0.13,6-2.56,8.84a7.79,7.79,0,0,1-5.93,2.25,17.22,17.22,0,0,1-5.78-.79,6.33,6.33,0,0,1-3.84-3.13,14.54,14.54,0,0,1-.95-5.44q-0.06-2.37-.07-11.19,0-4.51-.72-4.5h-1.92A0.16,0.16,0,0,1,226,1.43V0.6c0-.16.06-0.25,0.16-0.25h8.63c0.14,0,.21,0,0.21.15V1.33c0,0.19,0,.29-0.15.29h-2a0.29,0.29,0,0,0-.28.3q-0.11.68-.11,11.88a48,48,0,0,0,.21,5.6,6.27,6.27,0,0,0,2.23,4.12,7.76,7.76,0,0,0,4.92,1.42,6.17,6.17,0,0,0,5-2.33A7.13,7.13,0,0,0,246,19.69a15.69,15.69,0,0,0,.38-3.39q0-6.67-.07-8.75-0.19-5.93-1.07-5.93H243.1a0.18,0.18,0,0,1-.17-0.06,0.29,0.29,0,0,1,0-.13V0.54a0.37,0.37,0,0,1,0-.15,0.23,0.23,0,0,1,.16,0h7.15a0.18,0.18,0,0,1,.18.05,0.29,0.29,0,0,1,0,.13V1.37Z" style="fill:#231f20"/><path d="M272.33,0.49c-0.07.61-.28,1.66-0.62,3.12a0.36,0.36,0,0,1-.41.29,0.51,0.51,0,0,1-.52-0.33,1.69,1.69,0,0,0-1.11-1.06,21,21,0,0,0-2.91-.4c-1.49-.15-2.51-0.23-3-0.23a0.24,0.24,0,0,0-.25.27q-0.21,5-.21,17.8c0,3.51.27,5.26,0.78,5.26h2.68c0.07,0,.1.05,0.1,0.17v0.91c0,0.13,0,.19-0.1.19h-9.65a0.16,0.16,0,0,1-.17-0.19V25.42a0.17,0.17,0,0,1,.17-0.22h2.43c0.2,0,.3-0.14.3-0.43,0,0,0-.69,0-2s0-2,0-2.3,0-2.41.08-6.59,0.08-6.36.08-6.54c0-3.7-.18-5.54-0.54-5.54a20.16,20.16,0,0,0-6.21.79,2.69,2.69,0,0,0-1.09.82,2.26,2.26,0,0,1-.73.68A0.61,0.61,0,0,1,250.67,4a0.65,0.65,0,0,1,.1-0.64c0.29-1.13.58-2.16,0.86-3.09A0.27,0.27,0,0,1,252,.06c0.19,0,1.57.11,4.12,0.23q4.11,0.2,5.56.2,4.84,0,9.09-.16c0.33,0,.64,0,0.93-0.08l0.38-.08A0.25,0.25,0,0,1,272.33.49Z" style="fill:#231f20"/><path d="M297,1.37c0,0.17,0,.25-0.13.25h-0.69a14.23,14.23,0,0,0-1.6,0c0-.12,0,0.66-0.07,2.33s-0.07,3.55-.09,5.22c0,2.35,0,4.48,0,6.37,0.08,4-.79,7-2.56,8.84A7.81,7.81,0,0,1,286,26.68a17.22,17.22,0,0,1-5.78-.79,6.31,6.31,0,0,1-3.84-3.13,14.77,14.77,0,0,1-1-5.44q-0.06-2.37-.07-11.19c0-3-.23-4.5-0.71-4.5h-1.92a0.16,0.16,0,0,1-.17-0.19V0.6c0-.16.06-0.25,0.17-0.25h8.62c0.15,0,.22,0,0.22.15V1.33c0,0.19-.05.29-0.15,0.29h-2a0.29,0.29,0,0,0-.28.3q-0.1.68-.1,11.88a50.27,50.27,0,0,0,.2,5.6,6.21,6.21,0,0,0,2.23,4.12,7.76,7.76,0,0,0,4.91,1.42,6.18,6.18,0,0,0,5-2.33,7,7,0,0,0,1.19-2.92A15.47,15.47,0,0,0,293,16.3q0-6.67-.08-8.75c-0.12-4-.49-5.93-1.06-5.93h-2.19a0.19,0.19,0,0,1-.18-0.06,0.32,0.32,0,0,1,0-.13V0.54a0.31,0.31,0,0,1,0-.15,0.22,0.22,0,0,1,.17,0h7.14A0.18,0.18,0,0,1,297,.4a0.39,0.39,0,0,1,0,.13V1.37Z" style="fill:#231f20"/><path d="M317,23.29a5.94,5.94,0,0,1-.65,1.54s-0.21.46-.59,1.31a0.5,0.5,0,0,1-.37.39H298.45a0.18,0.18,0,0,1-.21-0.19V25.47a0.18,0.18,0,0,1,.17-0.22h2.22a0.31,0.31,0,0,0,.31-0.38s0-.51,0-1.57-0.05-2-.05-2.74q0-1.81.07-7.77T301,5.74q0-4.11-.68-4.12h-1.55a0.23,0.23,0,0,1-.27-0.25V0.6a0.22,0.22,0,0,1,.24-0.25h9.48a0.14,0.14,0,0,1,.17.15V1.43c0,0.13,0,.19-0.13.19h-3.12a0.3,0.3,0,0,0-.33.26c0,0.17-.08,3.27-0.15,9.28q-0.07,8.36-.08,9.67,0,4.48.89,4.48c2.68,0,4.7-.08,6.07-0.21a9.91,9.91,0,0,0,4.69-1.81,1.33,1.33,0,0,1,.55-0.27A0.36,0.36,0,0,1,317,23.29Z" style="fill:#231f20"/><path d="M140.5,62.74a0.73,0.73,0,0,1-.27.38,11.08,11.08,0,0,1-4.34,2.49,19.51,19.51,0,0,1-6,.86,11.91,11.91,0,0,1-3.89-.59,10.18,10.18,0,0,1-4.53-2.64q-2.9-3-2.9-9.18a15.55,15.55,0,0,1,1.63-6.87,12.26,12.26,0,0,1,4.08-4.72,13.57,13.57,0,0,1,8-2.49,20,20,0,0,1,5.06.67,8.71,8.71,0,0,1,2.48,1,0.23,0.23,0,0,1,.07.22c-0.13,1.1-.27,2.13-0.42,3.12-0.07.49-.15,1.1-0.23,1.82,0,0.29-.12.42-0.27,0.36a0.23,0.23,0,0,1-.28-0.21,4.14,4.14,0,0,0-.1-0.82c-0.15-.44-0.27-0.76-0.36-1a3.79,3.79,0,0,0-.69-0.93A7.57,7.57,0,0,0,132,41.77a8.12,8.12,0,0,0-6.71,2.89,13.44,13.44,0,0,0-2.81,8.77q0,5.85,3,9.09a8,8,0,0,0,6.21,2.35,9.64,9.64,0,0,0,4.11-1,6,6,0,0,0,2.28-2,5,5,0,0,0,.52-1.23,7.11,7.11,0,0,0,.29-1.19,0.3,0.3,0,0,1,.29-0.34,0.22,0.22,0,0,1,.23.17,8.43,8.43,0,0,0,.39,1.16Q139.94,60.84,140.5,62.74Z" style="fill:#231f20"/><path d="M168.56,41.39c0,0.16,0,.25-0.14.25h-0.68a15.08,15.08,0,0,0-1.61,0c0-.12,0,0.65-0.07,2.3S166,47.47,166,49.1q-0.05,3.48,0,6.27c0.07,4-.78,6.87-2.56,8.7a7.84,7.84,0,0,1-5.92,2.22,17.66,17.66,0,0,1-5.77-.78,6.35,6.35,0,0,1-3.85-3.08,14.06,14.06,0,0,1-.95-5.36q-0.07-2.33-.07-11c0-3-.24-4.42-0.72-4.42h-1.92a0.16,0.16,0,0,1-.17-0.19V40.63c0-.16.06-0.25,0.17-0.25h8.62c0.15,0,.22,0,0.22.16v0.81c0,0.19,0,.29-0.16.29h-2a0.29,0.29,0,0,0-.29.3q-0.1.66-.1,11.68a45.64,45.64,0,0,0,.2,5.51,6,6,0,0,0,2.23,4,7.78,7.78,0,0,0,4.92,1.42,6.24,6.24,0,0,0,5-2.31,7,7,0,0,0,1.18-2.86,14.52,14.52,0,0,0,.39-3.35c0-4.37,0-7.24-.07-8.6q-0.21-5.83-1.08-5.83h-2.19a0.16,0.16,0,0,1-.17-0.06,0.24,0.24,0,0,1,0-.13V40.58a0.21,0.21,0,0,1,0-.14,0.2,0.2,0,0,1,.16,0h7.15a0.2,0.2,0,0,1,.18.05,0.38,0.38,0,0,1,0,.14v0.81Z" style="fill:#231f20"/><path d="M191.25,63a5.31,5.31,0,0,1-.66,1.53L190,65.77a0.49,0.49,0,0,1-.36.39h-16.9a0.18,0.18,0,0,1-.21-0.19V65.11a0.17,0.17,0,0,1,.17-0.21h2.22a0.31,0.31,0,0,0,.3-0.38s0-.5,0-1.54-0.05-1.93-.05-2.7c0-1.19,0-3.73.07-7.65s0.08-6.22.08-6.94c0-2.7-.23-4-0.69-4H173a0.23,0.23,0,0,1-.27-0.25V40.63a0.21,0.21,0,0,1,.23-0.25h9.49a0.14,0.14,0,0,1,.17.16v0.91c0,0.13,0,.19-0.13.19H179.4a0.29,0.29,0,0,0-.33.25q0,0.26-.16,9.14c0,5.48-.08,8.65-0.08,9.51,0,2.93.29,4.41,0.88,4.41,2.69,0,4.71-.06,6.08-0.21a9.85,9.85,0,0,0,4.7-1.79A1.3,1.3,0,0,1,191,62.7,0.36,0.36,0,0,1,191.25,63Z" style="fill:#231f20"/><path d="M214.79,40.52c-0.09.62-.29,1.64-0.62,3.08a0.38,0.38,0,0,1-.42.28,0.52,0.52,0,0,1-.52-0.33,1.72,1.72,0,0,0-1.11-1,22.54,22.54,0,0,0-2.9-.4q-2.24-.22-3-0.22a0.23,0.23,0,0,0-.25.27q-0.2,4.91-.2,17.52c0,3.44.25,5.16,0.78,5.16h2.68c0.07,0,.1.06,0.1,0.18v0.89c0,0.12,0,.19-0.1.19h-9.65a0.15,0.15,0,0,1-.16-0.19V65a0.16,0.16,0,0,1,.16-0.2H202c0.21,0,.3-0.14.3-0.41,0,0,0-.68,0-1.94s0-2,0-2.27,0-2.38.08-6.49,0.08-6.25.08-6.43q0-5.45-.55-5.46a20.29,20.29,0,0,0-6.21.78,2.64,2.64,0,0,0-1.08.81,2.46,2.46,0,0,1-.73.68,0.63,0.63,0,0,1-.65-0.15,0.65,0.65,0,0,1,.1-0.63c0.29-1.11.57-2.12,0.87-3a0.28,0.28,0,0,1,.37-0.18c0.19,0,1.55.1,4.12,0.23,2.74,0.12,4.59.19,5.55,0.19q4.85,0,9.09-.15a7.4,7.4,0,0,0,.94-0.08l0.36-.07A0.25,0.25,0,0,1,214.79,40.52Z" style="fill:#231f20"/><path d="M242.27,41.39c0,0.16,0,.25-0.14.25h-0.68a14.8,14.8,0,0,0-1.6,0c0-.12,0,0.65-0.07,2.3s-0.07,3.5-.09,5.13q0,3.48,0,6.27c0.07,4-.78,6.87-2.55,8.7a7.85,7.85,0,0,1-5.92,2.22,17.71,17.71,0,0,1-5.78-.78,6.29,6.29,0,0,1-3.84-3.08,14,14,0,0,1-1-5.36q-0.07-2.33-.06-11c0-3-.24-4.42-0.73-4.42H218a0.16,0.16,0,0,1-.16-0.19V40.63c0-.16.05-0.25,0.16-0.25h8.62c0.15,0,.22,0,0.22.16v0.81c0,0.19-.05.29-0.15,0.29h-2a0.29,0.29,0,0,0-.28.3q-0.1.66-.1,11.68a47,47,0,0,0,.2,5.51,6.08,6.08,0,0,0,2.23,4,7.81,7.81,0,0,0,4.92,1.42,6.22,6.22,0,0,0,5-2.31,7,7,0,0,0,1.19-2.86,15.12,15.12,0,0,0,.39-3.35c0-4.37,0-7.24-.07-8.6q-0.2-5.83-1.06-5.83h-2.19a0.16,0.16,0,0,1-.17-0.06,0.34,0.34,0,0,1,0-.13V40.58a0.27,0.27,0,0,1,0-.14,0.2,0.2,0,0,1,.17,0h7.14a0.19,0.19,0,0,1,.18.05,0.42,0.42,0,0,1,0,.14v0.81Z" style="fill:#231f20"/><path d="M269.06,65.87c0,0.16,0,.23-0.15.23H263a0.9,0.9,0,0,1-.66-0.23,55.19,55.19,0,0,1-4.34-6,27.71,27.71,0,0,1-2.71-5.09,0.37,0.37,0,0,0-.27-0.3l-2.28-.25c-0.19,0-.28.06-0.28,0.29,0-.23,0,0.36,0,1.76s0,2.86,0,4.37c0,2.77.26,4.16,0.79,4.16H256a0.18,0.18,0,0,1,.18.22v0.85a0.15,0.15,0,0,1-.15.19h-9.29c-0.16,0-.24-0.06-0.24-0.19V65.1a0.2,0.2,0,0,1,.2-0.26h1.95c0.2,0,.3-0.18.3-0.57V46.8c0-3.42-.22-5.13-0.6-5.13h-1.92a0.15,0.15,0,0,1-.16-0.19V40.62a0.18,0.18,0,0,1,.13-0.22l5.27-.14c1.75,0,3.08-.08,4-0.08a15.5,15.5,0,0,1,2.38.15,7.31,7.31,0,0,1,4.08,2,6,6,0,0,1,1.84,4.46,7.36,7.36,0,0,1-1.81,5.05,8.52,8.52,0,0,1-3.21,2.07,0.19,0.19,0,0,0-.1.23,28.09,28.09,0,0,0,3.45,5.41c1,1.26,1.73,2.09,2.08,2.5A14.26,14.26,0,0,0,266.25,64a3.89,3.89,0,0,0,2.49.89,0.26,0.26,0,0,1,.32.26v0.77Zm-8.8-18.06a5.82,5.82,0,0,0-1.47-4.12,7.39,7.39,0,0,0-5.69-2.09,0.53,0.53,0,0,0-.64.37q0,5.23-.07,6.58v4a0.32,0.32,0,0,0,.26.36,9.74,9.74,0,0,0,1.87.08A9.28,9.28,0,0,0,257,52.7C259.17,52,260.26,50.38,260.26,47.81Z" style="fill:#231f20"/><path d="M294.75,66c0,0.13,0,.19-0.1.19h-8.19c-0.07,0-.1-0.08-0.1-0.23V65.18c0-.19.07-0.28,0.21-0.28h2c0.17,0,.24-0.12.21-0.34,0,0,0-.09,0-0.16-0.07-.25-0.43-1.46-1.1-3.6s-1.1-3.42-1.17-3.59a0.45,0.45,0,0,0-.37-0.41h-8a0.4,0.4,0,0,0-.28.25c-0.56,1.82-1,3.42-1.37,4.81a12.85,12.85,0,0,0-.5,2.43c0,0.41.13,0.62,0.3,0.62h2.5c0.13,0,.2.1,0.2,0.28V66a0.16,0.16,0,0,1-.17.19h-7.08a0.16,0.16,0,0,1-.17-0.19V65.11c0-.14,0-0.2.14-0.2H273a1.77,1.77,0,0,0,.83-1.12q2-5.22,4-10.73,3.84-9.94,4.35-11.17c0.3-.7.53-1.32,0.72-1.86a1,1,0,0,1,.38-0.67c0.56-.1,1.21-0.25,2-0.44a1.1,1.1,0,0,1,.24-0.07,0.33,0.33,0,0,1,.25.15,0.6,0.6,0,0,1,.12.36l-0.16.24c-0.06.07-.17,0.24-0.34,0.5a1.58,1.58,0,0,0-.32.82,8.83,8.83,0,0,0,.25,1.44c0.19,0.83.74,2.6,1.68,5.28q0.23,0.68,2.11,6.65c1.16,3.68,2.16,6.51,3,8.5,0.61,1.41,1,2.12,1.29,2.12h1.2c0.09,0,.14.1,0.14,0.28V66Zm-9-10.79q-0.2-.69-1.57-5l-1.26-4.54a0.74,0.74,0,0,0-.41-0.67,0.81,0.81,0,0,0-.45.67c-0.43,1.16-.89,2.46-1.4,3.9q-1,2.58-2.06,5.5a1.17,1.17,0,0,0-.07.3,0.11,0.11,0,0,0,.13.1h7C285.81,55.46,285.83,55.36,285.78,55.17Z" style="fill:#231f20"/><path d="M316.86,63a5.55,5.55,0,0,1-.65,1.53l-0.58,1.28a0.5,0.5,0,0,1-.37.39h-16.9a0.17,0.17,0,0,1-.2-0.19V65.11a0.17,0.17,0,0,1,.17-0.21h2.22a0.31,0.31,0,0,0,.3-0.38s0-.5-0.05-1.54,0-1.93,0-2.7c0-1.19,0-3.73.08-7.65s0.07-6.22.07-6.94c0-2.7-.22-4-0.69-4h-1.55a0.23,0.23,0,0,1-.27-0.25V40.63a0.21,0.21,0,0,1,.24-0.25h9.49a0.14,0.14,0,0,1,.17.16v0.91a0.16,0.16,0,0,1-.15.19H305a0.3,0.3,0,0,0-.33.25q-0.06.26-.16,9.14-0.08,8.22-.08,9.51c0,2.93.3,4.41,0.88,4.41,2.68,0,4.71-.06,6.08-0.21A9.84,9.84,0,0,0,316.1,63a1.44,1.44,0,0,1,.55-0.26A0.37,0.37,0,0,1,316.86,63Z" style="fill:#231f20"/><path d="M141.27,104.17c0,0.14,0,.22-0.15.22h-5.94a1,1,0,0,1-.65-0.22,54.64,54.64,0,0,1-4.34-5.88,27.62,27.62,0,0,1-2.71-5,0.36,0.36,0,0,0-.27-0.3l-2.28-.25a0.24,0.24,0,0,0-.28.29c0-.23,0,0.35,0,1.74s0,2.83,0,4.31c0,2.74.26,4.11,0.78,4.11h2.74a0.17,0.17,0,0,1,.18.2v0.86a0.15,0.15,0,0,1-.14.18h-9.3a0.19,0.19,0,0,1-.23-0.18V103.4a0.2,0.2,0,0,1,.2-0.24h2c0.2,0,.3-0.19.3-0.56V85.35c0-3.38-.22-5.06-0.6-5.06h-1.92a0.16,0.16,0,0,1-.17-0.19V79.26a0.18,0.18,0,0,1,.13-0.21l5.27-.15c1.75-.05,3.08-0.08,4-0.08a16,16,0,0,1,2.38.15,7.41,7.41,0,0,1,4.08,2,5.93,5.93,0,0,1,1.83,4.4,7.25,7.25,0,0,1-1.8,5,8.61,8.61,0,0,1-3.23,2,0.19,0.19,0,0,0-.1.23A27.93,27.93,0,0,0,134.46,98c1,1.23,1.73,2.05,2.07,2.45a14,14,0,0,0,1.94,1.89,3.93,3.93,0,0,0,2.48.87c0.22,0,.31.08,0.31,0.24v0.77Zm-8.79-17.83A5.69,5.69,0,0,0,131,82.28a7.4,7.4,0,0,0-5.68-2.06,0.54,0.54,0,0,0-.65.37q0,5.16-.07,6.49v4a0.32,0.32,0,0,0,.25.36,10.12,10.12,0,0,0,1.87.07,9.59,9.59,0,0,0,2.47-.31C131.38,90.5,132.48,88.89,132.48,86.34Z" style="fill:#231f20"/><path d="M183.12,91.15a15.37,15.37,0,0,1-2.63,9.25A10,10,0,0,1,175.6,104a12.49,12.49,0,0,1-4.27.65,13.37,13.37,0,0,1-6.26-1.25,8.47,8.47,0,0,1-2.6-2.12q-2.59-3.19-2.59-9.34a16.72,16.72,0,0,1,.65-4.8,12.47,12.47,0,0,1,2.35-4.49,10.75,10.75,0,0,1,4.31-3.07,11.71,11.71,0,0,1,4.48-.85,13.17,13.17,0,0,1,5.71,1,8.74,8.74,0,0,1,3.49,2.92A14.69,14.69,0,0,1,183.12,91.15Zm-3.83.94a19.85,19.85,0,0,0-.45-4.65,12.15,12.15,0,0,0-1.85-4,7,7,0,0,0-2.74-2.33,7.93,7.93,0,0,0-3.58-.89,5.69,5.69,0,0,0-3.39.89,7.29,7.29,0,0,0-2.58,3.6,18.13,18.13,0,0,0-1,6.26,18.75,18.75,0,0,0,1.68,8.64,7.56,7.56,0,0,0,3.08,3.08,7.13,7.13,0,0,0,3.55.88A6.16,6.16,0,0,0,176,102.1a8.55,8.55,0,0,0,2.45-3.8A17.88,17.88,0,0,0,179.29,92.09Z" style="fill:#231f20"/><path d="M232.6,104.26a0.18,0.18,0,0,1-.21.19h-8c-0.16,0-.24-0.06-0.24-0.19v-0.84a0.17,0.17,0,0,1,.17-0.2h1.5a0.39,0.39,0,0,0,.42-0.45V93.24c0-3.61,0-6.25-.13-7.91,0-.35-0.08-0.52-0.17-0.52a0.51,0.51,0,0,0-.26.33q-0.87,1.94-6.43,15.4c-0.8,1.93-1.34,3.31-1.63,4.14a0.5,0.5,0,0,1-.52.31,0.55,0.55,0,0,1-.55-0.28q-4.17-8.92-5-11-1.37-3-3.59-8.3a0.38,0.38,0,0,0-.25-0.3c-0.12,0-.19.13-0.21,0.38q-0.22,4-.22,10.41v4c0,2.2.27,3.3,0.82,3.3h1.69a0.15,0.15,0,0,1,.17.17v0.88c0,0.13,0,.19-0.1.19H203.5c-0.14,0-.21-0.05-0.21-0.16v-0.8c0-.19.06-0.28,0.18-0.28h1.7c0.3,0,.45-0.28.45-0.86,0-1,.1-4.52.26-10.47,0.08-1.5.18-4.09,0.28-7.78,0-1.85-.56-3.06-1.75-3.66a4.2,4.2,0,0,0-1.47-.3,0.14,0.14,0,0,1-.13-0.17V79.18a0.13,0.13,0,0,1,.13-0.15h5.74a0.43,0.43,0,0,1,.42.29c0.62,1.26,1.63,3.52,3,6.78,0.3,0.7,1.28,2.82,2.92,6.39q2.6,5.63,2.88,6.15c0.2,0.35.35,0.41,0.46,0.18,1.24-3,2.55-6.18,3.95-9.57q2.05-4.84,4.19-9.86a0.61,0.61,0,0,1,.54-0.36h4.59c0.14,0,.21.05,0.21,0.15v0.9a0.16,0.16,0,0,1-.15.2h-1.26c-0.37,0-.59.41-0.65,1.24s-0.1,3.81-.1,9q0,6,.1,8.55c0.11,2.79.47,4.18,1.06,4.18h1.53a0.17,0.17,0,0,1,.19.2v0.84Z" style="fill:#231f20"/><path d="M274.69,104.22c0,0.11,0,.18-0.11.18H266.4c-0.07,0-.1-0.08-0.1-0.22v-0.72c0-.19.07-0.29,0.21-0.29h2c0.17,0,.24-0.11.22-0.33l0-.16c-0.07-.25-0.43-1.44-1.1-3.56s-1.09-3.36-1.17-3.54a0.43,0.43,0,0,0-.36-0.39h-8a0.4,0.4,0,0,0-.29.24c-0.55,1.79-1,3.36-1.37,4.75a12.8,12.8,0,0,0-.51,2.4c0,0.4.13,0.6,0.31,0.6h2.5c0.14,0,.2.1,0.2,0.29v0.77a0.15,0.15,0,0,1-.16.18h-7.08a0.16,0.16,0,0,1-.18-0.18v-0.86c0-.13.05-0.2,0.15-0.2h1.25a1.72,1.72,0,0,0,.83-1.1l4-10.6c2.55-6.54,4-10.2,4.34-11s0.55-1.3.72-1.84a1.08,1.08,0,0,1,.39-0.66c0.55-.1,1.22-0.24,2-0.43l0.24-.06a0.29,0.29,0,0,1,.25.14,0.56,0.56,0,0,1,.11.36,2.27,2.27,0,0,1-.15.24l-0.35.5a1.56,1.56,0,0,0-.32.8,8.11,8.11,0,0,0,.26,1.43,53.51,53.51,0,0,0,1.67,5.21c0.15,0.43.86,2.63,2.12,6.56q1.74,5.44,3,8.38,0.92,2.1,1.31,2.09h1.2c0.09,0,.13.1,0.13,0.29v0.77Zm-9-10.66c-0.13-.44-0.66-2.09-1.56-4.91l-1.27-4.48a0.72,0.72,0,0,0-.41-0.66,0.82,0.82,0,0,0-.44.66c-0.43,1.15-.89,2.44-1.4,3.84l-2.06,5.44a2.68,2.68,0,0,0-.06.3,0.12,0.12,0,0,0,.13.1h7C265.75,93.85,265.77,93.75,265.71,93.56Zm2.73-17.95a0.87,0.87,0,0,1-.88-0.11,38.21,38.21,0,0,1-3.75-2.27q-1.34.88-3.63,2.27a0.85,0.85,0,0,1-.91.11c-0.16-.13-0.07-0.38.27-0.77,0.84-1,1.78-2.1,2.8-3.26a3.21,3.21,0,0,1,1.3-.15,9.21,9.21,0,0,1,1.75.11,37.29,37.29,0,0,1,2.8,3.3,1,1,0,0,1,.33.66A0.16,0.16,0,0,1,268.45,75.61Z" style="fill:#231f20"/><path d="M318.15,80a0.21,0.21,0,0,1-.21.25h-2.37a0.39,0.39,0,0,0-.38.49c0,0.09,0,1.75,0,5s0,4.93,0,5.21,0,2.49-.07,6.7S315,104,315,104.26a1,1,0,0,1-.27.88,0.59,0.59,0,0,1-.82-0.22q-4.58-6.22-9.45-12.82c-1.64-2.42-3.6-5.12-5.88-8.16-0.17-.17-0.28-0.1-0.33.17s-0.13,2.24-.25,6.3-0.2,6.69-.2,7.82q0,5,.92,5h2.06a0.16,0.16,0,0,1,.2.17v0.91a0.15,0.15,0,0,1-.18.16h-6.85c-0.15,0-.23,0-0.23-0.12v-0.92a0.19,0.19,0,0,1,.23-0.2h2a0.25,0.25,0,0,0,.28-0.27v-2.68c0-.74.11-3.66,0.3-8.76s0.32-7.7.32-7.8c0-2.3-.78-3.44-2.34-3.44h-1.11c-0.09,0-.13-0.07-0.13-0.2V79.21a0.15,0.15,0,0,1,.16-0.19h5.91a0.51,0.51,0,0,1,.46.31c0.1,0.21,1.09,1.62,2.94,4.24s2.87,4.07,3.1,4.36q3.55,4.74,7.5,9.84a0.2,0.2,0,0,0,.13.06c0.1,0,.16-0.18.17-0.52s0-2.16,0-5.77,0-5.57,0-5.92c-0.15-3.57-.58-5.36-1.27-5.36h-2a0.21,0.21,0,0,1-.26-0.2V79.21a0.18,0.18,0,0,1,.21-0.19h7.62c0.16,0,.25.05,0.25,0.15V80Z" style="fill:#231f20"/><path d="M0,21.39V84.85A31.61,31.61,0,0,0,31.48,53.13,31.61,31.61,0,0,0,0,21.39Z" style="fill:#231f20"/><path d="M72.66,53.85a31.61,31.61,0,0,0,31.5,31.73V22.13A31.6,31.6,0,0,0,72.66,53.85Z" style="fill:#231f20"/><path d="M51.34,74a31.61,31.61,0,0,0-31.48,31.73h63A31.61,31.61,0,0,0,51.34,74Z" style="fill:#231f20"/><path d="M18.89,0.64a31.49,31.49,0,1,0,63,0h-63Z" style="fill:#231f20"/></svg>