<svg id="Layer_1" data-name="Layer 1" xmlns="http://www.w3.org/2000/svg" viewBox="0 0 311.71 31.67"><title>logo plusminus</title><path d="M30,14.58a1,1,0,0,0-1-1H17.47V1.41a1,1,0,0,0-1-1h-3a1,1,0,0,0-1,1V13.58H1a1,1,0,0,0-1,1v3a1,1,0,0,0,1,1H12.48v10.8a1,1,0,0,0,1,1h3a1,1,0,0,0,1-1V18.57H29a1,1,0,0,0,1-1v-3Z" style="fill:#4f4f4f"/><path d="M76.12,13.58H48.17a1,1,0,0,0-1,1v3a1,1,0,0,0,1,1h28a1,1,0,0,0,1-1v-3A1,1,0,0,0,76.12,13.58Z" style="fill:#4f4f4f"/><path d="M47.93,3.84L45.35,2.35A1,1,0,0,0,44,2.72L30,26.93a1,1,0,0,0,.37,1.37L33,29.79a1,1,0,0,0,1.37-.37l14-24.21A1,1,0,0,0,47.93,3.84Z" style="fill:#4f4f4f"/><path d="M101,0.48H90.48a1,1,0,0,0-1,1V30.17a1,1,0,0,0,1,1h3a1,1,0,0,0,1-1V19.29H101c6.06,0,10-3.69,10-9.41S107,0.48,101,.48Zm-0.22,14H94.5V5.26h6.27c3.3,0,5.19,1.69,5.19,4.62S104.07,14.51,100.77,14.51Z" style="fill:#4f4f4f"/><path d="M134,26.41H120.22V1.5a1,1,0,0,0-1-1h-3a1,1,0,0,0-1,1V30.17a1,1,0,0,0,1,1H134a1,1,0,0,0,1-1V27.43A1,1,0,0,0,134,26.41Z" style="fill:#4f4f4f"/><path d="M158.07,0.48h-3a1,1,0,0,0-1,1V20.26c0,4.21-2.18,6.62-6,6.62s-6-2.41-6-6.62V1.5a1,1,0,0,0-1-1h-3a1,1,0,0,0-1,1V20.31c0,7.11,4.13,11.36,11.06,11.36s11-4.25,11-11.36V1.5A1,1,0,0,0,158.07.48Z" style="fill:#4f4f4f"/><path d="M176.71,13.34l-1.45-.22c-5.05-.67-5.7-2.57-5.7-4.15,0-2.62,1.87-4.19,5-4.19a12.47,12.47,0,0,1,6.82,2.13,1,1,0,0,0,1.41-.28l1.43-2.33a1,1,0,0,0,.23-0.74,1,1,0,0,0-.43-0.71A16.2,16.2,0,0,0,174.71,0c-6.22,0-10.23,3.62-10.23,9.23,0,3.42,1.59,7.71,9.19,8.75l1.49,0.22c5,0.64,5.65,2.41,5.65,4.24,0,2.74-2.27,4.45-5.93,4.45A13.18,13.18,0,0,1,167,24a1,1,0,0,0-.67-0.25,1,1,0,0,0-.75.38l-1.92,2.27a1.08,1.08,0,0,0,.1,1.46,16.88,16.88,0,0,0,10.78,3.85c7,0,11.36-3.64,11.36-9.49C185.9,17.14,182.81,14.17,176.71,13.34Z" style="fill:#4f4f4f"/><path d="M216.33,0.48H213.5a1.25,1.25,0,0,0-1.23.79L204.1,20.08l-8.33-18.8a1.25,1.25,0,0,0-1.24-.79H191.7a1,1,0,0,0-1,1V30.17a1,1,0,0,0,1,1h2.74a1,1,0,0,0,1-1V12.07l6.34,14a1.34,1.34,0,0,0,1.36.87h1.74a1.32,1.32,0,0,0,1.32-.86l6.34-14V30.17a1,1,0,0,0,1,1h2.74a1,1,0,0,0,1-1V1.5A1,1,0,0,0,216.33.48Z" style="fill:#4f4f4f"/><path d="M224.5,0.48h3a1,1,0,0,1,1,1V30.17a1,1,0,0,1-1,1h-3a1,1,0,0,1-1-1V1.5a1,1,0,0,1,1-1Z" style="fill:#4f4f4f"/><path d="M255.91,0.48h-2.74a1,1,0,0,0-1,1V21.82L239.71,1.24a1.29,1.29,0,0,0-1.27-.76h-2.78a1,1,0,0,0-1,1V30.17a1,1,0,0,0,1,1h2.73a1,1,0,0,0,1-1V10l12.44,20.44a1.31,1.31,0,0,0,1.27.76h2.78a1,1,0,0,0,1-1V1.5A1,1,0,0,0,255.91.48Z" style="fill:#4f4f4f"/><path d="M283.88,0.48h-3a1,1,0,0,0-1,1V20.26c0,4.21-2.17,6.62-6,6.62s-6-2.41-6-6.62V1.5a1,1,0,0,0-1-1h-3a1,1,0,0,0-1,1V20.31c0,7.11,4.13,11.36,11.06,11.36s11-4.25,11-11.36V1.5A1,1,0,0,0,283.88.48Z" style="fill:#4f4f4f"/><path d="M302.52,13.34l-1.44-.22c-5.05-.67-5.7-2.57-5.7-4.15,0-2.62,1.87-4.19,5-4.19a12.47,12.47,0,0,1,6.82,2.13,1,1,0,0,0,1.41-.28l1.44-2.33a1,1,0,0,0,.22-0.78,1.06,1.06,0,0,0-.42-0.67A16.2,16.2,0,0,0,300.53,0c-6.22,0-10.23,3.62-10.23,9.23,0,3.42,1.6,7.71,9.19,8.75L301,18.2c5,0.64,5.65,2.41,5.65,4.24,0,2.74-2.27,4.45-5.93,4.45A13.17,13.17,0,0,1,292.82,24a1.07,1.07,0,0,0-.67-0.25,1,1,0,0,0-.75.38l-1.92,2.27a1.07,1.07,0,0,0,.1,1.46,16.88,16.88,0,0,0,10.78,3.85c7,0,11.36-3.64,11.36-9.49C311.71,17.14,308.62,14.17,302.52,13.34Z" style="fill:#4f4f4f"/></svg>