<svg id="Layer_1" data-name="Layer 1" xmlns="http://www.w3.org/2000/svg" viewBox="0 0 15537.05 3443.14"><title>uar</title><path d="M310.22,1996.08V2847c0,601.11,572.09,940.35,1048,940.35s876.95-288.71,1197.75-647S4502.42,996.14,4502.42,996.14v946.38H3989.15l-390.39,449.16h903.66V3744.6h427.73V2386.28h610.16c56.27,0,165.23,53.55,165.23,197.91s-48.15,246-133.73,246h-470.5l839.55,914.45h502.6L5801.8,3017.35s347.58-64.18,347.58-502.74-408.16-572.09-673.77-572.09H4930.15V445.28H4481L2219.08,2963.89s-426.66,510.74-951.71,411.73c-283.42-53.46-540-239.19-540-492.65V1996Z" transform="translate(-310.22 -404.41)" style="fill:#221f20"/><path d="M7543.74,415.78h172.84V725q0,68.19,3.48,97.92t11.71,49.73q10,24.32,34.74,37.12t60.35,12.81q35.63,0,60.14-12.81t35-37.12q8.2-20,11.71-49.73t3.48-97.92V415.78h172.4V751.88q0,104.65-12.59,154.38t-42.56,84.89q-32.57,38.65-89.45,58t-138.09,19.32q-81.62,0-138.3-19.32t-89.66-58q-29.54-35.17-42.33-84.89t-12.83-154.37V415.78Z" transform="translate(-310.22 -404.41)" style="fill:#221f20"/><path d="M8241.14,1051.51V415.78h167.18l240.13,327q6.95,10,22.8,40.16t35,71.86q-5.21-39.5-7.61-70.35t-2.39-54.71v-314h166.32v635.73H8696.22L8456.08,723.23q-7.38-10-23.22-40.17t-34.53-71q5.21,40,7.6,70.77t2.39,54.71v314H8241.14Z" transform="translate(-310.22 -404.41)" style="fill:#221f20"/><path d="M9003.23,1051.51V415.78h175v635.73h-175Z" transform="translate(-310.22 -404.41)" style="fill:#221f20"/><path d="M9314.14,415.78H9487V725q0,68.19,3.48,97.92t11.71,49.73q10,24.32,34.75,37.12t60.34,12.81q35.63,0,60.14-12.81t35-37.12q8.21-20,11.71-49.73t3.48-97.92V415.78H9880V751.88q0,104.65-12.59,154.38t-42.55,84.89q-32.57,38.65-89.46,58t-138.09,19.32q-81.61,0-138.3-19.32t-89.67-58Q9339.76,956,9327,906.26t-12.82-154.37V415.78Z" transform="translate(-310.22 -404.41)" style="fill:#221f20"/><path d="M10011.54,1051.51V415.78h167.18l240.12,327q7,10,22.8,40.16t35,71.86q-5.21-39.5-7.6-70.35t-2.39-54.71v-314h166.32v635.73h-166.32l-240.15-328.28q-7.37-10-23.21-40.17t-34.54-71q5.23,40,7.61,70.77t2.39,54.71v314h-167.18Z" transform="translate(-310.22 -404.41)" style="fill:#221f20"/><path d="M10769.26,1051.51V415.78h389.51V555.17h-220.59v110.3h208V801.82h-208V909.08h220.59v142.43h-389.51Z" transform="translate(-310.22 -404.41)" style="fill:#221f20"/><path d="M11198.72,1051.51L11418,415.78h217.13l219.71,635.73h-172.39l-32.12-113.78h-246.22l-33,113.78h-172.39ZM11441.45,814h172.4l-64.69-209.74q-3.06-9.55-8.26-30.84t-13.47-54.71q-5.64,23.44-11.06,44.73t-11.07,40.82Z" transform="translate(-310.22 -404.41)" style="fill:#221f20"/><path d="M7473,2441.07l219.3-635.73h217.13l219.71,635.73H7956.7l-32.12-113.76H7678.36l-33,113.76H7473Zm242.74-237.52h172.4l-64.69-209.73q-3.06-9.57-8.26-30.85t-13.47-54.71q-5.64,23.45-11.07,44.74t-11.06,40.82Z" transform="translate(-310.22 -404.41)" style="fill:#221f20"/><path d="M8189.9,2441.07V1805.34H8371q106.38,0,148.3,9.77t72.29,32.8q34.3,26.06,52.77,66.45t18.46,89q0,73.82-36.27,120t-105.73,61.46l173.27,256.19H8498.22l-145.91-248.82v248.82H8189.9Zm162.41-335.23h32.12q56.05,0,81.88-19.11t25.84-59.91q0-47.77-24.12-68t-81-20.2h-34.74v167.18Z" transform="translate(-310.22 -404.41)" style="fill:#221f20"/><path d="M8760,2441.07V1805.34H8933.3v247.08h231V1805.34H9338v635.73h-173.7V2182.25h-231v258.81H8760Z" transform="translate(-310.22 -404.41)" style="fill:#221f20"/><path d="M9477.42,2441.07V1805.34h175v635.73h-175Z" transform="translate(-310.22 -404.41)" style="fill:#221f20"/><path d="M9883.86,2441.07V1955.59H9741.43V1805.34h458.12v150.25h-142.43v485.48H9883.86Z" transform="translate(-310.22 -404.41)" style="fill:#221f20"/><path d="M10284.23,2441.07V1805.34h389.51v139.39h-220.59V2055h208v136.35h-208v107.25h220.59v142.43h-389.51Z" transform="translate(-310.22 -404.41)" style="fill:#221f20"/><path d="M11249.09,1830.09v189.33q-35.59-39.49-71-58a161.59,161.59,0,0,0-75.77-18.46q-74.68,0-120.93,51t-46.24,133.11q0,76.44,47.1,126.8t120.07,50.35a161.62,161.62,0,0,0,75.77-18.44q35.39-18.47,71-58.4v189.75a413.11,413.11,0,0,1-82.06,30,346.15,346.15,0,0,1-82.52,10q-52.08,0-96.18-12.39a273.84,273.84,0,0,1-81-37.55q-71.25-47.77-108.57-120.28t-37.34-163.28q0-73,23.66-132.67t71.44-108.34q45.15-46.48,101.84-69.49t126.13-23a346.15,346.15,0,0,1,82.52,10A414.48,414.48,0,0,1,11249.09,1830.09Z" transform="translate(-310.22 -404.41)" style="fill:#221f20"/><path d="M11438.42,2441.07V1955.59H11296V1805.34h458.12v150.25h-142.43v485.48h-173.25Z" transform="translate(-310.22 -404.41)" style="fill:#221f20"/><path d="M11843.14,2441.07V1805.34h175v635.73h-175Z" transform="translate(-310.22 -404.41)" style="fill:#221f20"/><path d="M12158,2441.07V1805.34h173.26v487.23h215.37v148.5H12158Z" transform="translate(-310.22 -404.41)" style="fill:#221f20"/><path d="M13268.33,2124.5q0,68.64-25.19,128.54t-73.38,107.27a346.83,346.83,0,0,1-111.16,72.29,346.24,346.24,0,0,1-260.33,0,332.21,332.21,0,0,1-109.66-72.29q-49.09-47.35-74.48-107.71t-25.39-128.1q0-68.15,25.39-128.3t74.48-107.48a332.2,332.2,0,0,1,109.66-72.29,347.6,347.6,0,0,1,261,0,336.57,336.57,0,0,1,110.52,72.29A326.72,326.72,0,0,1,13242.9,1996Q13268.33,2056.32,13268.33,2124.5Zm-339.57,186.73q72,0,119.19-53t47.1-133.76q0-79.87-47.75-133.31t-118.54-53.39q-72.09,0-119.22,53.18t-47.1,133.52q0,81.66,46.45,134.2T12928.76,2311.23Z" transform="translate(-310.22 -404.41)" style="fill:#221f20"/><path d="M13376.87,2441.07V1805.34h181.07q106.38,0,148.3,9.77t72.3,32.8q34.3,26.06,52.76,66.45t18.47,89q0,73.82-36.28,120t-105.73,61.46L13881,2441.07h-195.84l-145.91-248.82v248.82h-162.4Zm162.4-335.23h32.13q56,0,81.87-19.11t25.84-59.91q0-47.77-24.12-68t-81-20.2h-34.74v167.18Z" transform="translate(-310.22 -404.41)" style="fill:#221f20"/><path d="M14225.37,2441.07V1805.34h132.44q148.07,0,209.53,13.89t107.89,46.48q60.36,42.09,91.64,107.89t31.27,150q0,84.22-31.27,150t-91.64,107.92q-46,32.14-105.09,45.8t-183.25,13.68h-161.52Zm171.52-142.43H14426q102,0,148.93-41.91t46.89-133.08q0-91.19-46.89-133.76T14426,1947.33h-29.11v351.31Z" transform="translate(-310.22 -404.41)" style="fill:#221f20"/><path d="M14911,2441.07V1805.34h175v635.73h-175Z" transform="translate(-310.22 -404.41)" style="fill:#221f20"/><path d="M15225.87,2441.07V1805.34H15393l240.13,327q6.95,10,22.8,40.17t35,71.88q-5.21-39.52-7.61-70.34t-2.39-54.71v-314h166.32v635.73h-166.32l-240.14-328.28q-7.37-10-23.22-40.17t-34.53-71q5.21,39.94,7.6,70.79t2.39,54.71v313.95h-167.18Z" transform="translate(-310.22 -404.41)" style="fill:#221f20"/><path d="M7547.66,3830.63V3194.9h181.07q106.38,0,148.3,9.77t72.3,32.79q34.3,26.06,52.77,66.45t18.46,89q0,73.83-36.27,120.05t-105.74,61.46l173.28,256.2H7856l-145.91-248.82v248.82h-162.4Zm162.4-335.24h32.13q56,0,81.87-19.11t25.84-59.91q0-47.77-24.12-68t-81-20.2h-34.74v167.18Z" transform="translate(-310.22 -404.41)" style="fill:#221f20"/><path d="M8770.48,3514.06q0,68.64-25.19,128.54t-73.38,107.27a346.74,346.74,0,0,1-111.16,72.3,346.26,346.26,0,0,1-260.32,0,332.31,332.31,0,0,1-109.66-72.3q-49.09-47.34-74.47-107.71t-25.4-128.1q0-68.16,25.4-128.3t74.47-107.48A332.3,332.3,0,0,1,8300.43,3206a347.63,347.63,0,0,1,261,0,336.55,336.55,0,0,1,110.52,72.29,326.76,326.76,0,0,1,73.15,107.25Q8770.5,3445.89,8770.48,3514.06Zm-339.57,186.73q72,0,119.19-53t47.11-133.75q0-79.88-47.76-133.32t-118.54-53.39q-72.08,0-119.22,53.18t-47.1,133.52q0,81.65,46.45,134.2T8430.91,3700.79Z" transform="translate(-310.22 -404.41)" style="fill:#221f20"/><path d="M9608.12,3830.63h-162l-37.34-274.86q-3.89-29.09-7.16-64.71t-5.84-77.72q-6.09,40.36-23.89,100.73c-2.62,8.39-4.5,14.63-5.66,18.67l-86.4,297.89H9164.31l-86.4-297.89c-1.16-4-2.9-10.28-5.22-18.67q-18.23-60.33-23.89-100.31-2.6,36.08-6.08,71.44t-8.25,70.58l-37.34,274.86H8836l98.13-635.73H9105.7l96,327.86q0.84,3.48,3.46,11.3,13.46,43.83,17,75.13a302.58,302.58,0,0,1,6.49-37.57q4.8-20.63,13-49.73l96.84-327h172Z" transform="translate(-310.22 -404.41)" style="fill:#221f20"/><path d="M9626.78,3830.63l219.3-635.73h217.13l219.71,635.73h-172.39l-32.12-113.77H9832.19l-33,113.77h-172.4Zm242.74-237.52h172.4l-64.69-209.74q-3.06-9.57-8.26-30.85t-13.47-54.71q-5.64,23.44-11.07,44.74t-11.06,40.82Z" transform="translate(-310.22 -404.41)" style="fill:#221f20"/><path d="M10343.72,3830.63V3194.9h167.17l240.13,327q7,10,22.8,40.17t35,71.88q-5.21-39.52-7.61-70.35t-2.39-54.71v-314h166.32v635.73h-166.32l-240.14-328.28q-7.37-10-23.22-40.17t-34.53-71q5.21,39.94,7.6,70.79t2.39,54.71v313.95h-167.17Z" transform="translate(-310.22 -404.41)" style="fill:#221f20"/><path d="M11105.8,3830.63V3194.9h175v635.73h-175Z" transform="translate(-310.22 -404.41)" style="fill:#221f20"/><path d="M11345.92,3830.63l219.3-635.73h217.13l219.71,635.73h-172.4l-32.12-113.77h-246.23l-33,113.77h-172.4Zm242.74-237.52h172.4l-64.69-209.74q-3.06-9.57-8.26-30.85t-13.48-54.71q-5.64,23.44-11.06,44.74t-11.06,40.82Z" transform="translate(-310.22 -404.41)" style="fill:#221f20"/><line x1="6681.59" x2="6681.59" y2="3423.85" style="fill:none;stroke:#221f20;stroke-miterlimit:10"/></svg>